<svg width="80" height="80" viewBox="0 0 80 80" fill="none" xmlns="http://www.w3.org/2000/svg">
<rect width="80" height="80" rx="40" fill="#FFEDF0"/>
<path fill-rule="evenodd" clip-rule="evenodd" d="M36.1606 23.3281C34.744 23.4279 32.8082 23.9969 31.3623 24.7384C24.9766 28.0129 22.3744 36.0385 25.6254 42.4324C26.1452 43.4547 27.2788 45.0556 27.6485 45.2898C27.9296 45.4675 31.0777 45.8643 31.2043 45.7379C31.2385 45.7037 30.8883 45.3726 30.4261 45.0023C29.4613 44.2291 28.3627 42.9143 27.7334 41.7798L27.299 40.9966L28.0905 41.7233C29.4247 42.948 31.75 44.2974 32.9348 44.5344C33.2968 44.6067 33.6791 44.9637 34.1645 45.6825C34.2161 45.7589 34.4853 45.5534 34.7951 45.2015C35.6098 44.2758 36.2515 44.127 38.8388 44.2636C42.1976 44.4408 42.1762 44.4427 43.2612 43.8948C44.7145 43.1613 45.8794 42.3411 46.8582 41.3622L47.7398 40.4805L47.4356 41.1302C47.0016 42.0564 46.273 43.1233 45.4872 43.9831C45.1139 44.3915 44.8429 44.7601 44.885 44.8023C44.9271 44.8443 45.6151 44.6661 46.4138 44.4061C47.2125 44.1462 47.9759 43.9335 48.1104 43.9335C48.5854 43.9335 49.8719 41.3035 50.2814 39.4956C51.5236 34.0108 49.3026 28.5082 44.6035 25.4285C43.6183 24.7826 41.6218 23.8409 41.2254 23.8349C41.1382 23.8336 40.7887 23.738 40.4487 23.6227C39.6655 23.3568 37.6848 23.2208 36.1606 23.3281ZM34.633 26.159C33.9655 26.8979 33.1706 28.0034 32.8378 28.6556L32.5444 29.2306L32.2994 28.9136C32.0959 28.6505 31.5293 27.3586 31.5293 27.1579C31.5293 26.987 34.4776 25.712 34.9708 25.6696C35.033 25.6642 34.881 25.8845 34.633 26.159ZM40.8003 25.979C42.0992 26.404 43.1221 26.9723 43.0452 27.2262C42.9091 27.6759 42.3209 28.923 42.2451 28.923C42.1999 28.923 41.9774 28.6146 41.7508 28.2378C41.5241 27.861 40.9789 27.1268 40.5392 26.6062C40.0995 26.0857 39.759 25.6599 39.7823 25.6599C39.8058 25.6599 40.2638 25.8035 40.8003 25.979ZM38.8444 27.2209C39.6091 27.9992 40.9276 29.9419 40.9269 30.2894C40.9266 30.4686 39.9771 31.0402 39.1651 31.3499C37.7225 31.9001 35.3377 31.5946 34.109 30.7022L33.7518 30.4429L34.2255 29.5851C34.8187 28.5108 35.4005 27.7762 36.4792 26.7391C37.4759 25.7806 37.4179 25.7689 38.8444 27.2209ZM45.8643 29.3851C46.7019 30.3818 47.3464 31.5151 47.2494 31.8207C47.0767 32.3646 46.324 33.3355 45.264 34.381C44.659 34.978 44.1412 35.4438 44.1137 35.4162C44.086 35.3885 43.945 34.6651 43.8006 33.8087C43.6559 32.9522 43.4177 31.9262 43.2711 31.5287L43.0045 30.806L43.6018 29.8972C43.9302 29.3972 44.2644 28.7699 44.3446 28.503L44.4902 28.0176L44.9009 28.3725C45.1267 28.5676 45.5602 29.0233 45.8643 29.3851ZM30.4176 28.9955C30.6128 29.3942 30.9813 29.9941 31.2364 30.3284L31.7004 30.9364L31.4714 31.7244C31.1393 32.8673 30.8878 34.2474 30.8819 34.9598C30.8791 35.3009 30.8295 35.5798 30.7716 35.5798C30.3663 35.5798 28.472 33.6815 27.6907 32.4924L27.3344 31.9502L27.6224 31.3829C28.0798 30.4819 28.6426 29.6943 29.3567 28.9557C29.7212 28.5788 30.0292 28.2704 30.0411 28.2704C30.0531 28.2704 30.2225 28.5967 30.4176 28.9955ZM34.8577 32.9092C35.6383 33.2102 35.9805 33.2634 37.2072 33.2752C38.7778 33.29 39.148 33.2043 40.6405 32.4801C41.1968 32.2102 41.6411 32.0662 41.7072 32.1345C41.8733 32.3059 42.2076 34.0475 42.3097 35.2736L42.3984 36.3379L41.9654 36.5619C40.0524 37.5512 36.4739 37.7939 34.1081 37.0951C32.2682 36.5516 32.3579 36.6768 32.5413 34.9087C32.6259 34.0933 32.7958 33.1196 32.919 32.7448L33.1429 32.0636L33.5435 32.3103C33.7638 32.4459 34.3552 32.7155 34.8577 32.9092ZM48.3645 34.9677C48.6475 36.8252 46.7145 39.8521 44.125 41.6067C43.1176 42.2892 42.6878 42.4648 42.8165 42.1412C43.3143 40.8897 43.5716 39.9874 43.7893 38.7301C43.9306 37.9143 44.064 37.2336 44.0856 37.2177C44.1073 37.2016 44.4142 36.9929 44.7676 36.7539C45.606 36.187 47.1864 34.6814 47.6589 33.9996L48.0315 33.4618L48.1403 33.8356C48.2 34.0411 48.3009 34.5506 48.3645 34.9677ZM28.3183 35.5389C28.8024 35.9825 29.5699 36.5914 30.024 36.8921L30.8497 37.4389L30.9418 38.2996C31.0318 39.139 31.7088 41.6489 31.9158 41.9099C31.9729 41.982 32.059 42.1699 32.1073 42.3277L32.1953 42.6146L31.6216 42.3096C29.4997 41.1813 27.7509 39.4529 26.8218 37.5658C26.416 36.7413 26.4053 36.6765 26.4747 35.4622C26.5728 33.7487 26.635 33.6238 27.083 34.2422C27.2782 34.5118 27.8342 35.0953 28.3183 35.5389ZM42.0385 39.0403C41.8254 40.1478 41.2749 41.6606 40.7346 42.6229C40.3916 43.234 40.2606 43.353 39.8151 43.4585C39.1366 43.6192 35.3608 43.6173 34.8649 43.4561C34.2277 43.249 33.0114 40.5839 32.6576 38.6194C32.5844 38.2129 32.5925 38.2041 32.9209 38.3288C35.3044 39.2351 39.5132 39.2083 41.7475 38.2727C41.9783 38.1761 42.1777 38.1041 42.1905 38.1127C42.2034 38.1213 42.1349 38.5387 42.0385 39.0403ZM47.7797 44.9238C47.1849 45.067 46.0238 45.4106 45.1354 45.7064C43.9368 46.1055 42.6498 46.1236 41.3836 45.759C40.3222 45.4533 36.9638 45.1545 36.0871 45.2878C35.3074 45.4062 34.5891 45.9782 34.7164 46.3793C34.8272 46.7283 35.9129 47.4092 36.69 47.617C37.0104 47.7028 37.2724 47.8069 37.2724 47.8485C37.2724 47.9718 35.6665 47.7557 31.3988 47.0579C30.689 46.9418 28.2547 46.6223 25.8068 46.3238C25.4321 46.2781 25.1004 46.3239 24.8279 46.459C24.6012 46.5713 24.1343 46.699 23.7902 46.7429C23.3526 46.7988 23.0272 46.9434 22.707 47.2245C22.2937 47.5874 22.253 47.6836 22.2883 48.2139C22.3324 48.8776 22.2823 48.8388 23.8283 49.4095C24.4385 49.6348 25.0553 49.876 25.1988 49.9456C25.7066 50.1918 30.747 51.5787 33.4872 52.2263C34.6895 52.5103 35.5975 52.8272 36.4407 53.2569C37.5497 53.8222 39.0776 53.9838 43.3326 53.9862C47.8323 53.9888 48.4965 54.0669 49.9829 54.7693C50.9513 55.2268 52.2723 56.3712 52.8751 57.275C53.0803 57.5827 53.3221 57.8979 53.4126 57.9753C53.5636 58.1046 63.8726 58.0828 64.0158 57.9528C64.0717 57.9022 63.6591 57.4243 61.9412 55.5502C60.5539 54.0367 59.4825 52.7779 58.5529 51.5692C56.7051 49.1666 52.9939 46.1078 50.9124 45.2717C50.1488 44.965 48.4102 44.7718 47.7797 44.9238Z" fill="#B92742"/>
</svg>
