<?xml version="1.0" standalone="no"?>
<!DOCTYPE svg PUBLIC "-//W3C//DTD SVG 1.1//EN" "http://www.w3.org/Graphics/SVG/1.1/DTD/svg11.dtd" >
<svg xmlns="http://www.w3.org/2000/svg">
<metadata>Generated by IcoMoon</metadata>
<defs>
<font id="icomoon" horiz-adv-x="1024">
<font-face units-per-em="1024" ascent="960" descent="-64" />
<missing-glyph horiz-adv-x="1024" />
<glyph unicode="&#x20;" horiz-adv-x="512" d="" />
<glyph unicode="&#xe900;" glyph-name="alert-circle" d="M484.369 916.289c-98.45-6.558-188.306-41.039-264.195-101.383-26.673-21.209-53.595-48.145-75.276-75.314-81.439-102.058-116.258-233.826-96.243-364.215 31.719-206.639 199.237-368.738 406.769-393.609 21.739-2.603 28.177-2.935 56.926-2.935 29.696 0 36.514 0.375 59.819 3.294 160.973 20.173 302.046 124.779 368.585 273.318 21.773 48.606 34.607 98.65 39.659 154.662 1.131 12.557 1.139 62.724 0.009 74.935-6.259 67.654-23.526 126.762-53.367 182.674-71.953 134.809-202.927 225.614-353.92 245.375-24.644 3.225-65.98 4.713-88.764 3.196zM529.715 830.76c107.853-5.355 204.625-52.777 274.953-134.74 98.244-114.498 119.185-279.337 52.791-415.584-75.132-154.18-240.469-239.283-409.673-210.867-89.381 15.014-172.227 62.921-230.712 133.419-107.611 129.715-117.752 314.701-24.972 455.533 74.425 112.969 203.642 178.892 337.612 172.24zM502.699 660.011c-15.415-4.162-25.805-13.657-30.985-28.32l-1.818-5.139-0.183-91.658c-0.205-103.359-0.525-96.225 4.843-106.947 4.907-9.805 13.286-17.071 24.068-20.881 6.229-2.197 16.721-2.731 23.373-1.178 15.411 3.588 27.977 15.808 31.855 30.985 1.233 4.826 1.271 7.479 1.259 96.034-0.009 79.172-0.137 91.619-0.986 95.253-3.524 15.094-15.872 27.689-30.912 31.535-5.837 1.493-15.595 1.644-20.514 0.315zM503.898 319.142c-25.532-5.841-40.179-31.309-32.021-55.671 5.875-17.549 22.097-29.137 40.794-29.137 18.65 0 35.179 11.831 40.934 29.308 1.481 4.497 1.749 6.426 1.788 13.001 0.085 12.966-3.563 21.794-12.749 30.878-5.662 5.594-10.223 8.367-17.429 10.586-5.824 1.792-15.881 2.283-21.316 1.037z" />
<glyph unicode="&#xe901;" glyph-name="arrow-down" d="M503.885 788.239c-15.723-3.116-29.12-15.761-33.071-31.212-1.263-4.94-1.28-7.701-1.28-254.615v-249.617l-114.008 113.916c-62.706 62.656-115.391 114.842-117.078 115.972-11.755 7.876-25.695 9.83-38.495 5.397-17.838-6.182-28.869-21.73-28.869-40.695 0-7.484 1.094-12.1 4.579-19.328l2.637-5.466 308.924-308.928 5.47-2.641c8-3.857 12.262-4.753 21.171-4.442 8.286 0.29 13.769 1.826 20.531 5.751 5.278 3.063 310.191 307.981 313.254 313.259 9.66 16.64 7.049 38.443-6.217 51.866-13.495 13.662-32.602 16.742-50.291 8.111l-6.11-2.982-229.948-229.79-0.013 248.917c-0.013 274.824 0.329 253.174-4.117 262.529-5.743 12.099-15.458 20.124-28.297 23.372-5.308 1.344-13.73 1.624-18.773 0.624z" />
<glyph unicode="&#xe902;" glyph-name="arrow-left" d="M502.037 787.871c-2.125-0.511-6.319-2.121-9.327-3.578l-5.466-2.65-153.588-153.473c-107.308-107.231-154.373-154.676-156.193-157.458-8.488-12.975-8.91-30.443-1.078-44.578 1.53-2.761 36.001-37.577 156.731-158.293 152.047-152.034 154.854-154.799 159.594-157.082 7.202-3.469 12.407-4.484 21.227-4.143 11.836 0.457 20.715 4.361 28.971 12.732 8.030 8.141 11.81 17.83 11.78 30.204-0.017 9.028-1.958 15.607-6.711 22.771-2.291 3.456-30.66 32.179-116.945 118.413l-113.92 113.852 502.673 0.64 5.218 2.014c13.5 5.21 22.933 15.283 27.025 28.864 1.877 6.221 1.596 17.835-0.585 24.439-3.831 11.584-11.174 20.075-22.007 25.451-9.732 4.826 13.389 4.437-263.070 4.45l-248.92 0.009 113.918 114.011c62.656 62.706 114.85 115.404 115.994 117.106 5.295 7.905 7.445 15.271 7.351 25.206-0.192 19.726-13.001 35.962-32.265 40.889-5.794 1.481-14.729 1.571-20.407 0.206z" />
<glyph unicode="&#xe903;" glyph-name="arrow-right" d="M501.184 787.609c-14.007-3.67-25.557-14.625-30.165-28.611-1.451-4.405-1.698-6.256-1.698-12.864s0.247-8.459 1.698-12.864c3.631-11.030-3.213-3.782 121.007-128.161l114.505-114.656-248.913-0.009c-215.418-0.009-249.507-0.137-253.332-0.947-16.029-3.396-29.559-17.101-32.844-33.267-3.886-19.127 5.712-38.699 23.123-47.147 9.315-4.523-13.745-4.156 262.737-4.164l249.886-0.013-115.503-115.618c-112.542-112.649-115.567-115.742-117.862-120.439-6.677-13.662-6.191-28.975 1.318-41.766 7.339-12.497 19.964-19.904 34.927-20.489 12.437-0.482 21.675 2.935 31.565 11.678 2.974 2.628 72.171 71.595 153.771 153.263 109.623 109.713 149.047 149.555 150.972 152.576 8.525 13.35 9.195 29.060 1.86 43.511-2.577 5.073-4.757 7.283-157.052 159.607l-154.436 154.462-5.47 2.655c-9.455 4.591-20.463 5.785-30.093 3.262z" />
<glyph unicode="&#xe904;" glyph-name="arrow-up" d="M501.205 787.653c-2.573-0.696-7.061-2.48-9.971-3.963-5.265-2.681-6.148-3.549-158.786-156.166-167.414-167.389-156.775-156.279-160.189-167.299-2.316-7.475-2.155-18.244 0.389-26.005 8.515-25.984 38.784-37.299 62.654-23.424 2.754 1.6 31.731 30.17 118.615 116.941l114.969 114.821 0.166-250.846 0.166-250.842 1.984-5.542c5.009-13.995 15.821-24.077 29.602-27.601 6.054-1.549 15.706-1.685 21.184-0.299 15.074 3.819 27.371 16.017 31.185 30.938 1.254 4.894 1.271 8.247 1.271 254.579v249.617l114.974-114.821c86.818-86.707 115.866-115.345 118.618-116.945 12.774-7.428 28.548-7.893 41.865-1.225 7.556 3.78 14.763 11.029 18.394 18.492 3.524 7.253 4.599 11.81 4.599 19.503 0 7.676-1.109 12.412-4.634 19.733l-2.624 5.47-154.121 154.071c-117.419 117.383-154.987 154.575-157.76 156.186-9.485 5.503-22.498 7.353-32.55 4.628z" />
<glyph unicode="&#xe905;" glyph-name="bell" d="M488.841 916.908c-46.054-3.705-85.843-14.374-125.747-33.716-99.215-48.091-169.035-140.954-187.441-249.3-5.018-29.542-5.175-34.547-5.19-165.677-0.011-101.060-0.123-113.903-1.047-119.317-4.505-26.415-21.38-49.468-45.036-61.517-11.671-5.943-20.675-8.299-35.215-9.203-15.34-0.951-22.917-3.494-31.188-10.462-23.396-19.708-18.959-57.468 8.315-70.784 3.626-1.771 8.063-3.358 11.025-3.947 7.296-1.446 861.507-1.506 869.063-0.060 33.946 6.494 46.746 47.962 22.336 72.371-8.768 8.764-16.828 11.87-33.481 12.894-11.546 0.708-17.229 1.801-25.732 4.945-24.631 9.105-43.75 28.911-51.742 53.589-4.39 13.559-4.215 7.94-4.215 135.168 0 70.98-0.252 118.666-0.657 125.025-6.639 103.853-60.066 199.529-144.367 258.534-49.254 34.474-104.132 54.634-165.649 60.853-8.819 0.891-45.372 1.3-54.033 0.603zM526.148 831.35c51.098-3.088 99.008-20.536 139.063-50.644 56.030-42.116 91.371-102.972 100.523-173.088 1.946-14.901 2.24-34 2.253-145.163 0.013-120.282-0.034-118.451 3.302-134.046 3.435-16.055 9.732-33.553 16.375-45.495 1.212-2.18 2.202-4.134 2.202-4.343s-125.069-0.375-277.926-0.375h-277.93l2.207 4.019c3.285 5.986 7.408 15.347 10.267 23.317 4.007 11.166 6.169 20.203 8.99 37.564 0.463 2.846 0.834 45.623 1.129 129.993 0.486 138.971 0.218 130.048 4.559 151.799 16.685 83.607 72.035 152.265 150.112 186.205 35.125 15.27 76.546 22.575 114.874 20.258zM428.058 106.061c-11.418-2.743-22.643-11.597-27.812-21.935-6.987-13.969-6.227-28.902 2.197-43.2 30.697-52.1 97.039-75.23 154.259-53.786 27.046 10.138 51.93 30.758 65.284 54.097 10.79 18.863 8.538 38.673-6.080 53.38-9.003 9.062-18.812 12.86-31.851 12.326-15.091-0.614-25.621-6.737-34.825-20.258-6.788-9.975-11.661-14.383-20.066-18.155-16.154-7.245-35.243-3.43-47.531 9.493-1.92 2.018-5.137 6.182-7.159 9.254-8.627 13.129-21.086 19.9-36.39 19.767-3.392-0.030-7.902-0.474-10.027-0.986z" />
<glyph unicode="&#xe906;" glyph-name="bell-off" d="M32.808 959.009c-19.785-5.509-32.341-21.703-32.391-41.777-0.019-7.409 1.448-13.194 5.219-20.583 2.136-4.186 8.911-11.123 96.098-98.415l93.8-93.912-2.867-7.556c-9.949-26.223-16.036-52.134-20.358-86.67-0.553-4.417-0.885-40.859-1.2-131.538-0.39-112.67-0.542-125.956-1.491-130.62-3.55-17.459-11.727-32.845-23.902-44.979-15.62-15.565-33.573-23.445-56.415-24.764-11.019-0.636-16.242-1.715-21.9-4.518-14.91-7.398-23.407-20.301-24.134-36.646-0.912-20.531 11.153-37.239 31.498-43.627 3.13-0.981 27.465-1.075 318.243-1.233l314.857-0.175 123.494-123.401c67.925-67.87 124.416-124.023 125.538-124.787 12.651-8.597 29.218-9.835 43.145-3.217 8.119 3.857 16.154 11.904 20.058 20.087 6.148 12.881 5.030 29.483-2.829 41.971-3.58 5.692-946.734 948.553-951.766 951.473-6.97 4.045-12.172 5.44-21.12 5.667-5.789 0.147-9.031-0.072-11.578-0.781zM490.778 917.135c-1.237-0.116-5.871-0.521-10.291-0.899-39.808-3.404-83.144-15.773-120.416-34.368-21.263-10.608-27.389-15.523-32.603-26.159-3.864-7.885-4.774-12.224-4.428-21.113 0.716-18.324 11.395-32.76 28.728-38.834 4.935-1.73 6.39-1.947 13.262-1.984 10.037-0.055 13.239 0.953 29.378 9.249 25.182 12.944 49.1 20.952 75.788 25.376 28.723 4.761 60.036 4.53 88.119-0.648 109.15-20.125 193.459-108.996 207.398-218.622 2.044-16.071 2.27-27.794 2.291-118.029 0.021-101.308-0.26-94.733 4.489-104.563 9.011-18.65 31.74-28.309 51.238-21.781 14.413 4.826 25.903 17.361 28.855 31.471 1.161 5.542 1.434 187.744 0.303 203.255-7.77 106.833-63.232 202.246-151.936 261.398-47.979 31.993-104.559 51.33-163.831 55.992-7.761 0.61-40.67 0.797-46.345 0.262zM442.859 457.011l178.812-178.816h-387.421l3.442 6.592c8.288 15.876 13.856 33.207 17.2 53.551 1.361 8.273 1.38 9.664 1.776 133.79 0.359 112.66 0.511 126.243 1.487 133.466 1.926 14.255 4.943 30.231 5.71 30.231 0.1 0 80.648-80.466 178.995-178.813zM428.331 106.121c-14.331-3.477-25.56-13.867-30.585-28.292-2.552-7.326-2.601-19.49-0.107-26.487 4.215-11.827 16.118-28.006 29.139-39.612 30.263-26.974 71.467-38.101 111.138-30.020 33.041 6.737 62.255 26.415 81.182 54.69 7.475 11.17 9.651 17.668 9.566 28.57-0.145 18.453-11.601 34.253-29.184 40.256-5.773 1.975-17.323 2.453-23.172 0.964-11.789-3.004-20.386-9.357-27.486-20.314-8.926-13.777-21.222-20.779-36.497-20.779-15.305 0-27.332 6.805-36.629 20.732-7.351 11.004-15.573 17.216-26.475 20.002-5.837 1.493-15.386 1.626-20.89 0.29z" />
<glyph unicode="&#xe907;" glyph-name="bookmark" d="M289.779 874.686c-1.061-0.126-4.679-0.546-8.040-0.931-7.777-0.893-21.159-4.299-28.984-7.377-46.193-18.176-76.657-58.482-81.644-108.024-0.513-5.103-0.658-103.85-0.519-354.411l0.192-347.337 1.752-5.146c2.5-7.339 5.876-12.621 11.507-18.001 13.149-12.565 32.079-15.411 48.489-7.292 2.123 1.050 65.86 46.195 141.638 100.318l137.779 98.415 138.385-98.85c84.314-60.224 139.942-99.554 142.37-100.655 25.809-11.703 55.603 4.548 60.169 32.819 0.922 5.709 0.956 688.804 0.034 698.854-2.79 30.474-14.848 57.073-35.669 78.69-19.345 20.087-42.193 32.122-71.42 37.617-7.057 1.328-7.543 1.33-230.592 1.436-122.934 0.058-224.385 0.002-225.447-0.125zM735.010 787.949c15.049-3.547 27.908-16.407 31.381-31.37 0.866-3.75 0.96-37.799 0.815-306.313l-0.162-302.093-116.676 83.341c-64.175 45.837-118.217 84.066-120.094 84.958-11.307 5.346-25.237 5.278-36.809-0.188-2.005-0.943-56.038-39.138-120.069-84.868l-116.422-83.149-0.162 302.451c-0.143 268.070-0.051 302.895 0.811 306.333 3.681 14.683 15.587 26.769 30.127 30.58 4.454 1.167 11.579 1.207 223.938 1.232 190.182 0.023 219.866-0.099 223.322-0.914z" />
<glyph unicode="&#xe908;" glyph-name="calendar" d="M330.758 915.654c-14.25-3.863-25.192-13.914-30.264-27.797l-1.723-4.718-0.402-51.026-48.362-0.279c-41.002-0.237-49.341-0.441-54.794-1.342-60.591-10.007-104.007-55.891-109.645-115.877-0.922-9.813-0.925-609.6-0.003-619.324 5.798-61.141 52.718-109.312 113.186-116.198 4.327-0.495 96.905-0.631 317.106-0.478l310.993 0.218 6.434 1.34c57.549 11.985 98.287 56.004 104.486 112.909 0.951 8.759 0.951 614.894 0 623.65-5.833 53.55-43.588 97.378-95.445 110.794-15.219 3.937-16.218 4-68.646 4.307l-48.026 0.282-0.269 24.225c-0.294 27.168-0.375 27.764-5.099 37.405-2.103 4.299-3.78 6.56-7.872 10.639-22.677 22.59-60.668 13.282-70.959-17.385l-1.728-5.146-0.235-24.925-0.23-24.925h-255.264v23.696c0 21.312-0.125 24.185-1.242 28.555-3.766 14.726-13.817 25.643-28.024 30.437-7.080 2.389-17.211 2.796-23.973 0.963zM298.459 721.852c0.011-26.961 0.217-28.686 4.479-37.506 5.457-11.291 16.972-20.266 29.281-22.822 18.819-3.907 38.81 5.667 47.15 22.58 4.324 8.771 4.605 11.080 4.618 38.069l0.011 23.638h255.358v-22.861c0-25.93 0.388-29.264 4.442-37.923 11.584-24.756 43.823-32.174 65.225-15.009 5.252 4.215 9.024 8.852 11.682 14.365 4.233 8.779 4.348 9.692 4.668 36.824l0.29 24.603h44.864c42.231 0 45.15-0.073 49.724-1.243 12.271-3.139 22.396-11.215 27.874-22.234 4.681-9.415 4.373-4.16 4.612-78.955l0.218-67.377h-681.861v66.759c0 74.493-0.265 69.898 4.608 79.894 5.214 10.697 16.636 19.673 28.197 22.156 3.34 0.717 13.274 0.908 49.367 0.949l45.186 0.051 0.009-23.96zM852.749 294.758c-0.158-185.493-0.226-195.247-1.323-198.916-4.361-14.571-15.543-25.988-29.722-30.336-3.721-1.139-14.579-1.182-310.029-1.182h-306.17l-5.23 1.771c-10.464 3.55-19.613 11.358-24.571 20.975-5.037 9.771-4.611-9.446-4.611 208.051v194.692h681.827l-0.171-195.055z" />
<glyph unicode="&#xe909;" glyph-name="camera" d="M376.953 874.398c-4.161-0.701-10.816-3.183-14.801-5.52-7.958-4.666-9.302-6.48-48.742-65.727l-37.264-55.981-80.673-0.221c-88.997-0.244-83.664-0.010-100.198-4.401-52.511-13.943-90.101-59.313-94.549-114.118-0.899-11.086-0.918-478.099-0.019-488.527 5.372-62.332 52.677-110.929 114.55-117.67 8.489-0.926 785.146-0.951 793.415-0.026 59.183 6.618 105.596 51.456 113.737 109.884 1.472 10.547 1.519 493.859 0.051 504.195-7.283 51.261-44.173 93.134-93.619 106.263-16.533 4.391-11.2 4.156-100.198 4.402l-80.67 0.222-37.286 56.005c-41.259 61.976-41.357 62.104-51.226 66.973-10.257 5.060 3.533 4.614-145.796 4.716-73.361 0.050-134.88-0.161-136.711-0.469zM655.044 732.050c29.619-44.444 38.605-57.469 41.139-59.658 7.386-6.375 15.049-9.735 24.789-10.872 2.94-0.343 42.79-0.603 93.116-0.605 98.359-0.006 91.26 0.323 101.013-4.688 10.684-5.49 19.439-16.885 21.854-28.442 1.425-6.803 1.425-480.114 0-486.915-3.157-15.113-15.714-28.126-31.177-32.316-3.964-1.075-23.906-1.131-394.364-1.131h-390.188l-5.143 1.749c-13.44 4.582-23.080 13.922-27.847 26.978l-1.722 4.719-0.166 241.195c-0.107 155.296 0.058 242.407 0.463 244.6 2.678 14.495 14.131 27.642 28.308 32.494l4.178 1.431 92.887 0.351c84.305 0.318 93.254 0.451 96.869 1.432 8.051 2.185 16.216 7.015 21.292 12.595 1.174 1.29 18.892 27.456 39.375 58.145l37.24 55.799h210.186l37.897-56.859zM494.059 618.421c-100.315-9.204-179.852-84.842-193.455-183.972-10.601-77.257 22.022-154.172 85.261-201.015 29.076-21.538 63.027-34.935 101.124-39.906 10.53-1.374 37.295-1.557 47.569-0.324 41.604 4.992 79.134 20.527 111.215 46.033 8.849 7.031 27.093 25.532 33.988 34.458 23.923 30.976 37.457 62.758 43.558 102.272 1.954 12.638 2.155 44.766 0.363 56.922-5.619 38.097-18.637 70.447-39.932 99.26-35.093 47.475-86.869 77.823-145.66 85.373-9.523 1.223-34.863 1.742-44.032 0.901zM530.176 531.904c49.591-6.669 92.382-44.651 105.024-93.227 14.153-54.374-7.509-110.118-54.682-140.706-40.375-26.18-94.571-26.551-135.599-0.926-56.178 35.085-76.544 106.782-46.996 165.431 25.049 49.715 76.798 76.881 132.252 69.427z" />
<glyph unicode="&#xe90a;" glyph-name="check" d="M845.833 746.006c-3.264-0.541-10.078-2.94-13.828-4.868-3.358-1.725-32.815-30.924-225.929-223.941l-222.066-221.952-93.752 93.594c-70.411 70.298-94.66 94.127-97.396 95.718-12.669 7.377-28.555 7.893-41.617 1.353-14.625-7.317-23.407-21.833-23.327-38.558 0.035-7.42 1.175-12.105 4.692-19.298l2.673-5.466 223.314-223.377 5.467-2.641c13.353-6.447 26.004-6.524 39.236-0.235 4.773 2.27 7.344 4.813 245.157 242.594 237.065 237.037 240.363 240.368 242.645 245.126 4.574 9.526 5.854 20.959 3.388 30.231-4.087 15.369-17.195 28.045-32.256 31.197-4.177 0.873-12.651 1.143-16.401 0.522z" />
<glyph unicode="&#xe90b;" glyph-name="chevron-down" d="M247.948 617.835c-19.529-4.22-33.193-20.176-34.247-39.99-0.426-8.007 0.906-14.126 4.787-21.988l2.917-5.91 132.266-132.253c102.623-102.618 133.134-132.77 136.134-134.549 14.558-8.627 32.819-8.043 47.070 1.502 3.345 2.244 256.183 254.433 263.074 262.406 15.189 17.562 14.528 42.623-1.549 58.875-13.001 13.14-32.337 16.225-49.707 7.93l-5.47-2.611-230.912-230.775-115.138 114.987c-122.164 122.007-117.379 117.457-127.141 120.874-5.157 1.805-16.966 2.609-22.085 1.503z" />
<glyph unicode="&#xe90c;" glyph-name="chevron-left" d="M632.947 746.006c-3.597-0.596-10.214-3.005-14.153-5.15-3.639-1.984-21.235-19.315-135.949-133.901-95.802-95.697-132.514-132.766-134.501-135.804-8.72-13.342-9.243-30.379-1.373-44.71 2.217-4.036 15.808-17.847 133.446-135.599 72.747-72.815 132.783-132.407 135.040-134.033 8.243-5.952 19.708-8.794 29.956-7.42 26.688 3.567 43.516 29.914 35.418 55.441-3.366 10.603 3.174 3.686-121.178 128.192l-114.837 114.978 115.541 115.615c113.246 113.323 115.584 115.712 117.854 120.44 4.574 9.519 5.858 20.956 3.392 30.231-4.087 15.369-17.195 28.045-32.256 31.197-4.177 0.873-12.651 1.143-16.401 0.522z" />
<glyph unicode="&#xe90d;" glyph-name="chevron-right" d="M374.444 745.468c-14.895-3.234-28.146-16.116-32.065-31.175-2.441-9.377-1.148-20.673 3.461-30.231 2.277-4.722 4.756-7.257 117.836-120.442l115.511-115.62-114.837-114.974c-124.667-124.817-117.742-117.483-121.299-128.482-1.318-4.075-1.681-6.549-1.748-11.9-0.101-8.162 0.764-12.002 4.414-19.618 10.338-21.559 35.523-29.978 57.562-19.243l6.111 2.978 265.83 265.835 2.637 5.466c3.575 7.415 4.638 11.917 4.638 19.618s-1.062 12.203-4.638 19.618l-2.637 5.466-266.474 266.476-5.467 2.654c-9.005 4.371-19.29 5.646-28.837 3.575z" />
<glyph unicode="&#xe90e;" glyph-name="chevron-up" d="M501.278 617.175c-5.973-1.566-10.867-3.908-15.479-7.407-2.035-1.545-62.502-61.658-134.366-133.583l-130.662-130.773-2.952-6.11c-6.649-13.769-6.287-28.156 1.035-41.169 3.324-5.905 11.6-13.581 17.925-16.619 12.852-6.174 25.484-6.084 38.523 0.273l6.11 2.982 230.273 230.114 230.268-230.114 6.114-2.978c12.753-6.221 25.22-6.464 37.628-0.725 23.633 10.923 32.137 40.815 17.702 62.229-2.389 3.55-35.157 36.651-134.891 136.282l-131.738 131.596-5.466 2.693c-9.344 4.6-20.433 5.823-30.025 3.309z" />
<glyph unicode="&#xe90f;" glyph-name="clock" d="M480.823 916.876c-116.175-8.582-220.189-55.795-301.036-136.642-74.177-74.177-120.646-168.918-133.769-272.731-2.837-22.447-3.227-29.598-3.227-59.179 0-28.745 0.332-35.179 2.938-56.922 22.902-191.125 162.798-350.281 349.703-397.841 52.439-13.346 109.434-17.596 163.219-12.173 126.118 12.715 241.015 75.482 320.495 175.083 81.438 102.059 116.258 233.826 96.243 364.215-27.068 176.337-154.167 323.468-324.992 376.217-30.741 9.493-61.705 15.592-96.892 19.084-12.079 1.199-60.48 1.79-72.683 0.889zM543.215 830.726c110.844-9.827 209.425-64.465 275.627-152.766 62.707-83.64 88.384-189.619 71.031-293.222-26.901-160.666-154.018-287.808-314.5-314.573-80.183-13.372-161.344-1.348-234.129 34.688-155.284 76.881-239.38 248.009-205.774 418.726 28.151 143.005 139.015 260.354 279.744 296.104 27.29 6.933 45.565 9.702 78.793 11.939 6.46 0.435 41.365-0.201 49.207-0.896zM501.197 745.794c-12.531-3.282-22.268-11.139-28.070-22.652-4.54-9.009-4.258 1.23-4.062-148.746l0.179-135.074 1.741-4.698c3.452-9.301 9.097-16.7 16.469-21.585 2.368-1.566 43.669-22.519 91.78-46.558 95.441-47.684 92.049-46.17 103.236-46.089 11.955 0.090 21.043 3.908 29.628 12.459 18.266 18.193 17.062 46.404-2.701 63.415-2.714 2.334-19.652 11.072-79.189 40.862l-75.738 37.897-0.013 116.902c-0.013 128.939 0.226 121.408-4.070 130.39-9.028 18.872-29.491 28.638-49.19 23.477z" />
<glyph unicode="&#xe910;" glyph-name="copy" d="M153.361 915.911c-54.287-7.924-97.204-48.256-107.98-101.478-2.964-14.638-2.982-16.091-2.754-223.961 0.238-216.306-0.059-200.323 4-216.332 13.472-53.146 57.744-91.14 112.591-96.627 4.367-0.435 17.663-0.623 34.734-0.491l27.658 0.213 5.404 1.882c38.793 13.504 39.19 67.285 0.601 81.276l-4.718 1.711-29.266 0.397c-32.271 0.439-32.643 0.482-41.487 4.774-11.322 5.5-19.838 16.346-22.476 28.625-0.942 4.386-1.020 22.81-0.858 203.255l0.178 198.432 1.723 4.718c4.732 12.953 14.512 22.682 27.084 26.94l5.284 1.789h399.439l5.227-1.773c12.817-4.343 22.426-13.922 27.405-27.316 1.314-3.533 1.404-5.159 1.788-33.303 0.388-28.473 0.457-29.758 1.869-34.090 4.651-14.287 14.635-24.667 27.947-29.052 7.859-2.59 18.381-2.572 26.364 0.044 15.927 5.22 26.94 18.313 29.367 34.911 1.199 8.197 0.508 59.756-0.909 67.736-10.295 58.030-52.685 99.621-109.807 107.74-9.481 1.347-409.167 1.328-418.406-0.020zM454.161 617.751c-54.009-6.986-97.911-46.505-109.666-98.715-3.354-14.899-3.13-0.909-3.392-211.58-0.259-207.147-0.205-211.618 2.743-226.091 11.081-54.417 54.887-95.010 109.983-101.918 13.124-1.647 412.096-1.173 420.326 0.495 28.749 5.841 51.093 17.399 69.803 36.117 21.171 21.18 33.869 48.239 36.941 78.72 0.947 9.378 0.934 397.926-0.013 407.62-5.376 55.078-44.8 100.203-98.603 112.863-14.029 3.301-4.544 3.168-221.679 3.095-111.258-0.038-204.16-0.311-206.443-0.607zM866.338 530.705c14.084-4.915 24.853-16.461 28.066-30.084 1.459-6.199 1.468-398.396 0.004-404.164-4.284-16.909-18.513-29.555-35.776-31.804-3.81-0.495-62.588-0.649-200.922-0.516l-195.537 0.183-5.146 1.754c-13.385 4.557-22.976 13.879-27.618 26.842l-1.971 5.495-0.179 198.11c-0.196 222.622-0.652 202.436 4.796 213.321 5.538 11.063 16.815 19.691 28.83 22.063 3.78 0.742 36.386 0.87 202.295 0.781l197.786-0.102 5.372-1.877z" />
<glyph unicode="&#xe911;" glyph-name="crop" d="M255.604 959.387c-16.382-2.572-29.998-14.215-35.020-29.945-1.758-5.507-2.135-21.518-2.87-121.976l-0.474-64.729-30.309-0.412c-16.67-0.227-57.373-0.655-90.45-0.953-67.148-0.605-63.061-0.308-73.319-5.33-10.864-5.32-19.679-16.671-22.204-28.592-4.137-19.527 5.426-39.28 23.162-47.84 9.875-4.766 4.254-4.563 103.067-3.727 48.55 0.411 88.478 0.541 88.73 0.289s-0.274-86.632-1.167-191.954c-0.904-106.547-1.394-194.351-1.106-197.931 4.32-53.525 43.503-99.977 95.431-113.126 16.803-4.258-2.269-3.9 217.238-4.1l198.592-0.179 0.013-87.309c0.013-97.954-0.273-91.93 4.834-102.276 4.941-10.014 14.225-18.069 24.742-21.47 6.532-2.112 17.579-2.381 24.119-0.585 11.925 3.273 22.191 11.529 27.238 21.909 4.924 10.129 4.599 2.987 4.599 101.427v88.294l178.496 0.35 5.402 1.886c40.593 14.165 38.66 70.477-2.829 82.517-3.571 1.037-10.505 1.135-92.459 1.31l-88.593 0.192-0.171 199.539c-0.162 191.373-0.218 199.79-1.361 205.65-5.312 27.193-17.114 49.648-36.041 68.573-21.709 21.707-48.393 34.231-78.865 37.018-6.242 0.571-50.782 0.356-199.356-0.96-105.222-0.932-191.39-1.618-191.484-1.525s0.162 40.259 0.566 89.259c0.828 100.137 1.107 92.902-3.983 103.192-7.035 14.224-19.808 22.671-35.843 23.704-2.77 0.178-6.517 0.092-8.326-0.192zM694.993 658.757c11.682-3.794 20.937-11.91 25.907-22.723 4.275-9.29 3.981 6.031 3.994-207.174l0.009-193.771h-194.961c-175.647 0-195.355 0.102-198.916 1.020-13.868 3.567-25.349 14.242-30.031 27.925-1.185 3.465-1.479 6.007-1.713 14.797-0.266 10.018 2.831 378.272 3.184 378.541 0.346 0.264 366.044 3.409 376.446 3.237 9.732-0.16 11.503-0.364 16.081-1.852z" />
<glyph unicode="&#xe912;" glyph-name="download" d="M502.494 874.151c-12.621-2.872-24.154-12.218-29.568-23.964-4.262-9.245-3.964 7.284-3.977-219.83l-0.009-206.464-72.524 72.435c-62.587 62.515-73.096 72.751-76.704 74.711-29.105 15.82-63.988-4.66-63.86-37.493 0.041-10.454 3.086-18.88 9.821-27.183 5.273-6.498 217.684-218.526 221.451-221.052 13.675-9.165 29.235-10.18 44.207-2.884l6.11 2.978 222.737 222.733 2.948 6.11c3.772 7.812 5.239 14.865 4.663 22.368-1.673 21.778-18.786 38.56-40.602 39.82-7.676 0.443-13.764-0.878-21.547-4.676l-6.11-2.983-145.037-144.871-0.166 208.71-0.162 208.71-1.724 4.718c-6.34 17.353-21.065 28.195-39.117 28.806-4.365 0.147-8.201-0.1-10.833-0.698zM117.566 362.086c-11.966-2.897-22.914-11.908-28.273-23.262-4.285-9.079-3.974-1.609-4.215-101.158-0.228-93.943-0.101-99.763 2.466-112.563 10.373-51.725 50.487-91.392 102.398-101.261 12.42-2.359 14.417-2.372 327.238-2.163 339.507 0.226 308.173-0.171 325.137 4.126 44.745 11.337 80.521 47.078 91.989 91.904 4.262 16.666 4.181 14.43 4.181 115.396 0 62.673-0.218 92.352-0.695 94.976-2.97 16.269-15.394 29.7-31.215 33.745-22.336 5.713-44.693-6.707-52.122-28.962-1.118-3.349-1.199-8.563-1.536-96.806-0.393-104.307 0.051-95.155-5.146-105.668-4.996-10.095-15.138-18.3-26.381-21.333l-4.907-1.323-612.23 0.324-4.181 1.493c-12.733 4.54-22.953 14.737-27.193 27.132l-1.43 4.181-0.349 93.265c-0.325 87.194-0.423 93.517-1.501 97.126-4.648 15.565-16.658 27.388-31.333 30.848-5.108 1.203-15.702 1.195-20.704-0.017z" />
<glyph unicode="&#xe913;" glyph-name="edit" d="M586.863 916.574c-5.948-1.619-13.568-5.776-18.654-10.176-7.966-6.891-472.767-472.628-474.982-475.939-1.129-1.69-2.908-4.898-3.954-7.138-3.991-8.533-3.846-4.369-3.656-104.789l0.173-91.477 1.983-5.542c4.023-11.247 11.533-19.75 21.801-24.691 9.804-4.719 2.998-4.403 100.6-4.655 91.491-0.235 94.543-0.162 102.334 2.432 10.38 3.452-6.299-12.791 249.483 243.025 130.039 130.057 237.76 238.204 239.381 240.326 8.717 11.416 11.273 25.754 6.997 39.236-3.443 10.856 1.173 5.892-95.168 102.332-60.484 60.545-89.963 89.619-92.591 91.321-6.886 4.459-12.919 6.221-22.178 6.476-5.734 0.158-9.050-0.054-11.571-0.741zM652.271 759.156l54.801-54.833-425.865-426.133h-110.243v109.666l212.931 213.067c117.114 117.186 213.076 213.066 213.251 213.066 0.179 0 24.981-24.675 55.125-54.833zM118.575 63.693c-19.405-5.252-31.921-20.301-32.916-39.569-1.085-21.005 13.306-39.817 33.716-44.075 4.069-0.849 50.485-0.943 394.665-0.798l390.050 0.166 4.181 1.506c10.381 3.742 20.501 12.032 24.862 20.361 7.113 13.598 6.771 29.734-0.9 42.692-4.898 8.265-13.756 15.428-23.322 18.85l-4.177 1.493-391.471 0.124c-327.266 0.098-392.001-0.026-394.688-0.751z" />
<glyph unicode="&#xe914;" glyph-name="eye" d="M486.895 831.294c-156.188-9.269-305.236-104.874-425.587-272.984-22.105-30.877-51.895-79.385-57.935-94.344-4.597-11.379-4.113-23.373 1.417-35.098 8.123-17.225 31.79-55.898 51.556-84.241 62.329-89.382 138.386-163.537 216.036-210.633 66.008-40.034 131.462-61.995 205.186-68.838 14.059-1.306 58.833-1.101 73.007 0.337 90.85 9.203 171.588 42.189 251.494 102.758 77.107 58.445 152.094 145.378 205.521 238.259 14.165 24.631 16.388 30.276 16.388 41.638 0 10.406-2.411 16.576-15.245 39.014-45.675 79.87-108.028 156.646-173.218 213.294-107.213 93.169-226.842 138.064-348.621 130.836zM526.131 745.791c65.724-2.916 126.221-22.717 188.049-61.548 72.017-45.227 142.374-117.865 199.629-206.108 8.627-13.291 18.193-29.124 18.193-30.114 0-1.762-18.116-30.703-30.404-48.585-51.93-75.546-113.126-138.27-176.265-180.668-133.321-89.515-280.329-92.143-414.804-7.407-78.009 49.156-154.222 130.325-212.22 226.022l-6.237 10.291 1.978 3.537c17.321 30.963 52.016 79.488 81.176 113.529 97.344 113.641 208.277 176.098 321.536 181.029 6.067 0.264 11.904 0.521 12.966 0.572 1.058 0.050 8.439-0.198 16.401-0.551zM502.012 618.407c-41.532-2.456-81.055-20.258-110.619-49.822-41.57-41.571-58.619-100.975-45.635-159.002 8.634-38.588 31.903-74.261 64.34-98.641 39.169-29.44 90.872-40.503 139.188-29.781 66.705 14.805 118.605 68.582 130.859 135.59 12.442 68.036-16.794 136.323-74.577 174.196-30.404 19.927-66.97 29.624-103.556 27.46zM529.024 531.337c34.436-7.586 59.951-33.434 66.684-67.554 1.604-8.128 1.737-22.575 0.277-30.635-6.191-34.197-32.478-61.175-66.837-68.595-7.633-1.647-27.051-1.609-34.214 0.068-34.108 7.987-58.923 32.858-66.027 66.18-1.826 8.585-1.975 25.088-0.294 32.956 7.697 36.036 34.82 62.276 70.502 68.198 6.844 1.139 23.505 0.794 29.909-0.619z" />
<glyph unicode="&#xe915;" glyph-name="eye-off" d="M33.77 958.97c-20.218-4.525-33.737-21.379-33.77-42.097-0.012-7.424 1.085-12.047 4.571-19.271l2.638-5.467 187.337-187.492-3.526-3.058c-71.53-62.030-133.84-138.995-180.568-223.036-9.399-16.909-10.098-19.025-10.098-30.554 0-11.388 0.702-13.589 9.451-29.589 45.043-82.381 112.825-166.528 181.891-225.801 115.164-98.833 242.544-141.568 372.716-125.043 64.38 8.171 127.467 30.144 184.188 64.149l11.802 7.078 195.729-195.575 5.47-2.658c17.297-8.405 36.284-5.146 49.86 8.559 14.592 14.733 16.35 37.291 4.254 54.566-1.058 1.51-214.903 215.659-475.213 475.883-414.285 414.149-473.776 473.386-477.154 475.114-9.177 4.695-20.462 6.332-29.578 4.292zM485.299 831.271c-32.247-1.92-70.905-8.689-82.612-14.465-13.99-6.903-22.41-20.039-23.044-35.947-0.522-13.111 3.345-23.178 12.362-32.177 11.741-11.719 24.989-14.905 44.253-10.642 97.502 21.577 197.466 0.284 289.519-61.668 44.446-29.912 89.677-71.661 130.005-119.996 24.653-29.55 50.253-65.39 69.675-97.556l6.477-10.726-7.433-12.433c-18.133-30.319-39.97-61.239-63.578-90.031-9.131-11.136-12.544-17.212-14.118-25.126-6.199-31.194 21.909-57.916 52.655-50.052 11.669 2.982 18.121 8.299 33.583 27.674 28.651 35.895 51.631 69.568 73.651 107.925 14.784 25.745 16.887 30.976 16.887 41.946 0 10.684-2.142 16.124-15.727 39.881-34.569 60.451-80.708 121.623-129.233 171.331-118.519 121.414-253.35 180.396-393.323 172.064zM309.696 589.505c49.373-49.375 53.956-54.135 53.235-55.291-20.923-33.503-29.507-77.322-22.94-117.091 13.652-82.671 84.392-142.835 168.139-143.002 30.391-0.060 58.603 7.258 84.352 21.875l6.839 3.887 98.633-98.637-6.729-3.682c-68.096-37.286-146.543-53.756-217.826-45.734-117.094 13.18-230.239 87.578-328.13 215.765-16.903 22.131-42.213 59.797-51.722 76.966l-1.84 3.324 7.671 12.757c38.974 64.823 90.080 125.603 148.572 176.698 3.891 3.4 7.22 6.183 7.398 6.187s24.634-24.307 54.348-54.022zM531.46 362.906c-9.835-3.042-25.613-3.904-36.885-2.014-34.982 5.871-62.703 33.028-69.508 68.105-2.281 11.75-1.576 27.452 1.745 38.874l1.015 3.499 107.345-107.315-3.712-1.148z" />
<glyph unicode="&#xe916;" glyph-name="filter" d="M74.741 873.145c-14.749-3.869-26.877-16.052-30.728-30.864-3.127-12.029 0.117-27.26 7.876-36.985 1.411-1.769 76.711-90.888 167.333-198.042l164.767-194.825v-134.238c0-130.551 0.034-134.37 1.242-139.098 2.359-9.225 8.103-18.155 15.029-23.373 5.709-4.297 181.277-91.917 186.982-93.316 5.065-1.242 13.739-1.37 18.978-0.282 15.279 3.17 29.257 16.644 32.768 31.573 0.866 3.699 0.986 24.772 1.007 181.389l0.026 177.207 166.519 196.823c91.584 108.253 167.565 198.561 168.845 200.684 5.982 9.926 7.612 23.967 4.036 34.734-4.416 13.292-13.777 22.957-26.961 27.847l-4.693 1.741-434.172 0.127c-425.564 0.124-434.262 0.103-438.855-1.102zM845.052 787.768c-8.969-10.436-280.572-331.939-282.155-333.991-1.225-1.591-3.17-4.919-4.322-7.394-4.412-9.506-4.134 1.553-4.134-163.674v-149.257l-84.902 42.458v128.862c0 126.601-0.026 128.947-1.284 133.871-2.743 10.739 3.874 2.59-146.657 180.526-76.945 90.952-140.716 166.348-141.715 167.546l-1.816 2.179h333.977c318.012 0 333.931-0.054 333.009-1.126z" />
<glyph unicode="&#xe917;" glyph-name="heart" d="M281.089 874.059c-1.238-0.137-5.435-0.567-9.327-0.958-123.229-12.372-223.951-107.13-244.704-230.217-3.786-22.456-4.787-53.724-2.377-74.291 6.975-59.541 29.794-111.611 67.792-154.692 3.9-4.425 94.318-95.194 200.928-201.711 190.643-190.481 193.916-193.711 198.66-195.994 13.828-6.66 28.77-6.208 41.809 1.276 3.524 2.018 34.039 32.222 194.155 192.175 104.486 104.38 193.455 193.545 197.713 198.14 40.597 43.87 64.405 94.754 72.67 155.339 1.276 9.35 1.451 13.367 1.463 33.769 0.013 24.779-0.478 30.985-3.921 49.849-22.669 124.163-125.146 216.73-251.426 227.113-13.466 1.108-43.686 0.406-56.282-1.306-43.959-5.977-83.797-20.851-119.202-44.508-16.521-11.041-28.267-20.779-45.82-37.987l-11.618-11.389-9.929 10.009c-48.525 48.905-101.409 75.24-169.129 84.22-7.571 1.004-45.17 1.854-51.457 1.164zM315.823 788.251c32.745-2.796 63.083-13.215 90.106-30.942 13.353-8.759 18.721-13.519 48.186-42.719 16.098-15.953 30.464-29.928 31.927-31.057 13.389-10.319 34.274-11.125 48.7-1.881 2.569 1.645 13.875 12.387 32.256 30.641 15.565 15.459 30.618 29.999 33.446 32.312 29.466 24.078 63.019 38.453 100.663 43.128 9.967 1.237 36.258 1.041 46.259-0.346 88.158-12.226 155.315-80.266 166.118-168.303 1.084-8.824 1.092-35.050 0.013-43.738-4.493-36.172-18.658-69.951-41.271-98.414-3.716-4.676-59.908-61.325-182.793-184.282l-177.429-177.527-178.394 178.496c-98.652 98.705-180.334 180.937-182.731 183.957-41.376 52.177-52.845 122.481-30.199 185.115 9.387 25.962 24.334 49.367 44.273 69.321 14.324 14.336 25.926 23.233 42.606 32.677 31.639 17.913 71.874 26.669 108.264 23.561z" />
<glyph unicode="&#xe918;" glyph-name="help-circle" d="M497.553 917.148c-69.999-2.625-135.128-19.067-195.86-49.445-133.779-66.916-228.605-195.188-252.74-341.883-4.94-30.025-6.082-44.433-6.118-77.184-0.035-32.282 1.416-51.008 6.125-79.019 19.216-114.304 80.381-217.399 172.259-290.347 60.698-48.192 134.556-81.045 211.37-94.020 174.528-29.478 349.035 40.171 455.194 181.67 28.011 37.342 49.335 76.958 65.924 122.492 13.359 36.663 21.965 76.591 26.069 120.951 1.31 14.174 1.092 64.457-0.346 79.117-4.625 47.246-14.938 90.535-31.373 131.706-67.251 168.452-224.589 283.113-404.838 295.028-10.97 0.725-37.013 1.257-45.666 0.933zM536.145 830.696c62.686-4.111 122.569-23.031 175.599-55.477 51.196-31.325 96.183-76.312 127.505-127.508 69.692-113.894 74.752-257.221 13.282-375.89-56.358-108.796-161.583-184.525-281.975-202.931-22.494-3.439-29.897-3.934-58.854-3.934-28.314 0-35.972 0.486-56.922 3.622-162.205 24.252-292.143 150.66-320.591 311.876-6.636 37.606-7.629 77.466-2.886 115.78 13.998 113.055 79.399 215.404 176.821 276.712 54.424 34.249 116.856 54.127 182.030 57.957 8.516 0.5 37.171 0.371 45.99-0.207zM493.372 703.622c-0.883-0.148-4.215-0.586-7.398-0.973-41.967-5.093-83.294-28.226-110.292-61.736-13.752-17.070-26.845-41.745-29.968-56.478-4.812-22.703 10.469-45.893 33.299-50.532 20.775-4.223 41.194 7.033 48.785 26.888 5.888 15.395 14.298 27.766 25.173 37.015 41.728 35.498 104.956 23.377 130.705-25.057 7.91-14.876 11.635-36.978 8.388-49.729-4.54-17.813-22.332-37.077-50.129-54.281-12.796-7.919-32.26-17.438-45.026-22.025-8.811-3.166-13.572-6.059-19.034-11.563-8.751-8.823-12.595-19.076-12.019-32.094 0.781-17.779 11.776-32.431 28.907-38.524 4.16-1.481 5.747-1.685 13.402-1.724 9.911-0.051 13.082 0.819 31.654 8.704 76.053 32.29 125.073 80.725 136.486 134.857 8.29 39.318-1.711 85.809-26.321 122.364-26.573 39.467-66.679 65.089-114.867 73.382-7.59 1.307-36.676 2.355-41.745 1.504zM502.421 276.54c-8.738-1.894-18.577-8.030-24.055-15.006-18.419-23.445-8.606-57.216 19.614-67.49 4.309-1.57 5.525-1.719 14.046-1.707 8.866 0.009 9.583 0.111 14.541 2.005 24.576 9.399 35.294 35.746 24.034 59.076-8.623 17.865-28.48 27.392-48.179 23.121z" />
<glyph unicode="&#xe919;" glyph-name="home" d="M506.18 916.892c-4.736-0.742-9.067-2.239-14.131-4.883-3.981-2.077-388.332-300.378-393.859-305.678-3.957-3.796-8.608-11.301-10.544-17.016l-1.789-5.284-0.184-242.169c-0.201-264.666-0.399-249.237 3.392-264.819 12.287-50.509 51.799-87.428 103.566-96.768l8.362-1.51h311.319c295.441 0 311.642 0.060 317.747 1.143 28.237 5.018 50.381 16.141 70.025 35.179 17.502 16.956 29.372 37.598 35.089 61.022 3.81 15.595 3.588-0.555 3.588 263.821v243.459l-1.749 5.146c-2.214 6.496-5.7 12.434-9.826 16.729-5.35 5.569-390.763 304.864-395.947 307.474-7.219 3.637-17.493 5.341-25.058 4.155zM683.068 687.13l169.805-132.043-0.149-228.665-0.154-228.663-1.489-4.177c-4.578-12.843-14.635-22.921-27.132-27.196l-4.181-1.429-136.683-0.346v193.502c0 136.154-0.209 194.633-0.7 197.321-2.372 13.005-11.238 24.896-22.78 30.554-10.645 5.214 2.846 4.779-147.618 4.779h-134.11l-4.824-1.506c-15.474-4.83-26.488-16.021-30.249-30.724-1.248-4.881-1.268-7.987-1.268-199.445v-194.483l-137.327 0.35-4.337 1.685c-13.5 5.257-23.143 15.573-27.272 29.188-1.121 3.695-1.178 13.504-1.352 231.339l-0.181 227.477 170.3 132.522c93.662 72.887 170.659 132.406 171.098 132.264s77.21-59.678 170.603-132.301zM597.534 234.765v-170.129h-170.449v340.258h170.449v-170.129z" />
<glyph unicode="&#xe91a;" glyph-name="image" d="M199.735 874.664c-31.871-3.955-57.568-16.583-79.133-38.887-19.686-20.361-31.465-45.215-35.007-73.871-0.46-3.729-0.673-102.689-0.673-313.373 0-338.086-0.277-314.159 3.818-330.005 13.983-54.097 59.812-92.305 115.535-96.32 12.504-0.905 602.699-0.9 614.556 0.004 64.41 4.898 114.078 54.566 118.976 118.976 0.913 12.023 0.913 602.889 0 614.913-4.228 55.613-42.701 101.61-96.367 115.214-16.009 4.058 7.94 3.791-330.901 3.685-169.88-0.053-309.74-0.204-310.802-0.336zM821.402 788.038c14.076-4.728 24.61-14.884 29.124-28.078l1.429-4.181 0.171-165.626 0.166-165.624-71.889 71.782c-76.868 76.762-74.526 74.602-84.753 78.173-4.544 1.587-6.071 1.797-13.18 1.816-9.476 0.026-16.461-1.839-23.356-6.229-2.91-1.857-65.446-63.989-232.68-231.183l-228.698-228.642-3.763 1.98c-10.675 5.615-17.317 13.321-21.368 24.785l-1.816 5.141-0.176 303.919c-0.196 339.111-0.605 309.126 4.357 319.357 6.132 12.644 18.58 21.9 31.839 23.674 1.062 0.142 138.983 0.228 306.491 0.192 294.383-0.065 304.683-0.107 308.1-1.255zM351.212 704.201c-23.522-2.476-46.79-13.519-63.889-30.319-15.706-15.431-25.691-34.054-30.149-56.23-2.099-10.442-2.099-29.122 0-39.564 8.759-43.569 40.666-75.764 84.39-85.155 9.215-1.975 29.767-2.142 39.558-0.316 43.58 8.132 77.178 41.308 86.036 84.955 2.095 10.325 2.057 31.002-0.068 40.881-10.052 46.64-45.888 79.697-92.704 85.514-5.106 0.635-18.122 0.766-23.173 0.234zM370.406 617.136c9.525-4.213 14.863-15.001 12.106-24.46-4.66-15.985-23.601-21.158-35.159-9.6-13.744 13.745-2.71 37.335 16.673 35.644 1.917-0.167 4.789-0.88 6.381-1.584zM852.267 223.842c-0.009-88.41 0.265-82.948-4.646-92.945-5.342-10.876-16.704-19.733-28.467-22.195-3.908-0.815-37.342-0.943-253.427-0.951l-248.925-0.013 365.345 365.346 170.133-170.125-0.013-79.117z" />
<glyph unicode="&#xe91b;" glyph-name="info" d="M491.721 916.853c-225.175-9.488-412.837-179.372-444.387-402.289-22.917-161.911 38.78-322.53 164.109-427.238 144.269-120.529 347.986-143.014 515.081-56.853 129.993 67.029 221.645 190.677 247.262 333.581 27.571 153.801-21.854 309.453-132.86 418.43-6.315 6.201-13.943 13.461-16.951 16.134-91.409 81.247-209.847 123.393-332.254 118.235zM536.149 830.684c180.954-11.717 329.361-148.317 355.319-327.055 2.957-20.365 3.511-29.124 3.52-55.637 0.013-37.525-3.221-63.94-11.883-97.015-38.673-147.746-161.788-258.863-312.559-282.099-32.862-5.065-71.919-5.679-105.165-1.66-155.372 18.79-284.992 131.895-324.449 283.115-8.858 33.95-11.881 58.462-11.923 96.695-0.031 27.831 0.38 34.782 3.251 54.963 24.605 173.005 163.526 307.853 336.983 327.101 20.019 2.221 47.202 2.868 66.906 1.593zM503.334 660.553c-23.044-4.969-38.025-27.54-33.412-50.336 4.122-20.343 21.508-34.459 42.415-34.429 12.053 0.017 21.577 4.017 30.263 12.713 26.355 26.383 8.768 71.050-28.642 72.746-4.032 0.183-7.659-0.053-10.624-0.693zM505.737 490.381c-16.653-2.513-30.66-14.989-35.315-31.454-1.118-3.968-1.178-8.879-1.178-96.802v-92.625l1.813-5.146c2.688-7.612 5.222-11.627 11.004-17.438 20.535-20.638 55.531-14.665 68.241 11.648 4.736 9.805 4.489 4.006 4.489 104.845 0 101.359 0.341 93.606-4.548 103.556-8.128 16.546-26.385 26.15-44.506 23.415z" />
<glyph unicode="&#xe91c;" glyph-name="link" d="M239.648 703.579c-24.912-2.074-45.001-6.092-65.722-13.147-97.273-33.118-164.387-119.006-173.288-221.76-1.67-19.277-0.18-47.462 3.587-67.857 19.386-104.96 103.235-187.465 208.684-205.338 19.811-3.358 23.463-3.482 102.961-3.482 71.309 0 73.929 0.043 78.723 1.267 15.052 3.853 27.17 16.154 31.005 31.484 1.58 6.323 1.024 17.591-1.177 23.748-4.599 12.86-14.465 22.682-27.047 26.931l-5.284 1.783-76.543 0.397c-42.099 0.213-77.266 0.567-78.151 0.781s-4.647 0.858-8.362 1.429c-16.209 2.5-32.048 7.586-47.92 15.39-98.221 48.286-126.125 173.606-57.795 259.564 5.581 7.021 18.935 20.374 25.956 25.955 20.954 16.657 46.316 28.64 71.634 33.847 16.946 3.485 15.174 3.415 96.245 3.82l75.578 0.378 4.181 1.502c11.358 4.081 20.314 11.727 24.99 21.332 3.878 7.966 4.78 12.239 4.465 21.172-0.209 5.956-0.6 8.398-1.949 12.169-4.598 12.857-14.455 22.675-27.047 26.94l-5.284 1.789-74.935 0.059c-41.214 0.032-76.093-0.037-77.508-0.155zM630.447 702.997c-8.747-1.897-18.291-7.764-23.893-14.688-18.825-23.264-8.495-58.479 19.981-68.102l4.19-1.417 75.575-0.385c81.318-0.414 79.475-0.34 96.806-3.91 53.385-10.996 100.297-49.767 121.527-100.439 9.604-22.921 13.679-45.026 13.018-70.562-0.478-18.402-2.479-30.741-7.586-46.707-19.977-62.498-71.906-106.889-137.335-117.406-8.755-1.408-10.347-1.442-85.141-1.818-71.629-0.354-76.433-0.448-79.761-1.557-11.866-3.959-21.38-11.917-26.381-22.063-10.291-20.89-1.937-46.767 18.487-57.237 9.813-5.030 4.954-4.796 92.8-4.531 84.919 0.256 80.708 0.090 101.862 3.998 65.301 12.062 124.16 49.933 162.953 104.849 41.809 59.187 56.346 136.273 39.036 207.014-26.611 108.757-118.234 186.516-230.135 195.308-13.675 1.074-150.852 0.769-156.002-0.347zM335.487 490.423c-12.898-1.719-26.17-10.953-32.048-22.293-12.705-24.516-0.254-53.457 26.581-61.79 5.303-1.643 352.4-2.069 360.511-0.439 27.883 5.598 42.697 35.563 30.204 61.073-5.278 10.769-14.605 18.577-26.658 22.302l-4.821 1.489-174.955 0.085c-96.224 0.051-176.69-0.145-178.813-0.427z" />
<glyph unicode="&#xe91d;" glyph-name="list" d="M201.851 744.94c-11.472-3.422-21.359-11.573-26.26-21.648-3.897-8.011-4.8-12.314-4.454-21.21 0.714-18.295 11.533-32.931 28.801-38.959l5.449-1.902 283.48-0.165c281.728-0.165 283.511-0.158 288.623 1.122 16.393 4.105 28.834 16.878 32.098 32.946 3.891 19.165-5.662 38.657-23.108 47.144-9.323 4.535 17.399 4.163-296.329 4.135l-283.479-0.025-4.821-1.439zM208.279 490.449c-10.182-1.37-17.14-4.885-24.774-12.523-8.985-8.986-12.491-17.387-12.491-29.931 0-19.665 12.051-35.729 31.202-41.587 3.653-1.122 15.584-1.178 285.365-1.374 208.964-0.149 282.795-0.013 286.37 0.533 16.427 2.509 29.828 14.131 34.82 30.208 1.937 6.229 2.078 17.51 0.29 23.475-4.471 14.925-15.637 25.899-30.929 30.387-3.657 1.071-18.671 1.135-285.090 1.207-154.675 0.047-282.82-0.132-284.764-0.397zM206.584 234.389c-15.252-2.551-28.264-13.568-33.49-28.348-2.217-6.276-2.776-17.476-1.182-23.71 4.070-15.927 15.613-27.746 31.225-31.979 3.959-1.071 19.063-1.131 287.658-1.131h283.482l4.821 1.506c14.524 4.535 24.798 14.4 29.295 28.126 2.675 8.171 2.688 18.671 0.034 26.321-5.41 15.578-17.557 26.197-33.186 29.005-5.611 1.007-562.657 1.212-568.657 0.209z" />
<glyph unicode="&#xe91e;" glyph-name="lock" d="M494.293 916.849c-115.145-8.524-210.272-92.187-232.865-204.803-4.991-24.877-5.435-34.138-5.442-113.367l-0.006-65.126h-25.374c-34.66 0-45.418-1.548-64.551-9.283-44.918-18.163-75.311-59.059-79.861-107.46-0.944-10.048-0.916-312.107 0.029-321.655 5.413-54.635 43.586-99.183 96.43-112.538 16.372-4.139-12.654-3.78 323.215-4.015 213.205-0.145 307.034-0.004 313.57 0.482 31.044 2.308 58.517 14.507 80.316 35.669 20.194 19.601 31.953 41.574 37.551 70.157l1.387 7.074 0.23 159.518c0.162 113.937 0.021 161.54-0.491 166.592-5.44 53.82-43.831 98.377-96.162 111.616-12.817 3.243-20.356 3.843-48.299 3.843h-25.348v67.698c-0.004 67-0.269 77.804-2.291 93.105-10.099 76.531-53.303 143.48-119.313 184.9-8.542 5.359-26.914 14.724-37.082 18.899-36.13 14.839-77.457 21.519-115.644 18.692zM539.354 829.527c36.51-6.3 67.674-22.333 93.244-47.972 26.522-26.586 41.839-56.675 48.32-94.915 1.041-6.147 1.161-13.322 1.353-79.92l0.205-73.166h-340.303v68.989c0 57.274 0.164 70.409 0.967 77.347 9.155 79.089 69.905 140.568 148.748 150.535 10.611 1.341 37.431 0.835 47.467-0.897zM818.15 447.087c18.654-3.379 32.273-17.766 34.756-36.71 0.461-3.499 0.614-54.025 0.486-157.909l-0.188-152.764-1.749-5.146c-4.582-13.449-13.922-23.095-26.978-27.866l-4.719-1.719-305.207-0.179c-341.335-0.196-309.478-0.644-319.861 4.506-7.178 3.558-15.19 11.52-18.62 18.505-4.72 9.613-4.383-4.070-4.197 170.261l0.167 156.817 1.687 4.335c5.843 15.019 17.564 25.088 32.403 27.84 6.845 1.267 605.018 1.297 612.020 0.030z" />
<glyph unicode="&#xe91f;" glyph-name="log-in" d="M636.173 874.663c-17.809-1.806-33.66-15.564-37.666-32.691-1.476-6.307-1.015-17.733 0.947-23.477 3.703-10.842 11.554-19.892 21.449-24.721 10.534-5.142 4.578-4.867 105.51-4.867 87.125 0 89.792-0.036 94.613-1.268 14.95-3.824 27.494-16.359 30.908-30.892 1.489-6.329 1.519-611.325 0.030-617.191-3.618-14.276-14.515-25.813-28.937-30.63l-4.506-1.506-186.53-0.644-5.542-1.984c-17.971-6.434-28.868-21.811-28.868-40.742 0-19.473 13.116-36.425 31.906-41.229 4.826-1.233 7.505-1.267 97.771-1.267 100.407 0 99.349-0.034 113.779 3.486 49.869 12.169 86.532 51.507 96.256 103.287l1.51 8.038 0.192 306.816c0.132 216.050-0.017 309.001-0.503 314.21-3.921 41.721-26.479 77.838-62.080 99.382-16.282 9.855-36.429 16.105-56.922 17.664-7.953 0.605-177.527 0.816-183.317 0.229zM417.157 703.049c-28.084-7.582-41.022-36.62-27.806-62.404 1.698-3.311 12.313-14.21 74.696-76.696l72.721-72.838-416.134-0.337-5.146-1.813c-7.616-2.688-11.632-5.222-17.429-11.004-17.283-17.229-16.442-45.214 1.857-61.82 4.237-3.844 13.025-8.533 18.788-10.027 2.589-0.67 43.549-0.87 210.312-1.024l207.095-0.196-144.21-144.384-2.987-6.114c-5.287-10.816-6.171-21.487-2.691-32.495 8.346-26.398 39.049-37.909 63.087-23.65 5.534 3.285 222.135 219.601 226.756 226.462 4.809 7.13 6.626 13.385 6.69 22.972 0.038 6.37-0.213 8.559-1.451 12.544-3.426 11.017 4.028 3.11-117.73 124.842-105.182 105.156-111.953 111.795-116.318 114.028-8.922 4.57-21.638 6.24-30.101 3.955z" />
<glyph unicode="&#xe920;" glyph-name="log-out" d="M203.914 873.78c-61.83-5.044-110.718-52.317-117.715-113.826-0.492-4.322-0.629-97.045-0.47-316.784 0.209-287.548 0.305-311.053 1.303-315.772 6.161-29.18 16.686-49.327 35.837-68.608 19.671-19.806 40.845-30.886 69.611-36.42 5.565-1.071 12.528-1.152 103.414-1.152h97.447l4.721 1.822c8.772 3.379 14.99 7.791 19.802 14.046 16.746 21.76 9.646 52.723-14.876 64.9-9.402 4.668-4.037 4.437-103.424 4.45-98.791 0.013-94.427-0.162-103.692 4.151-9.315 4.339-16.142 11.153-20.687 20.659-4.435 9.271-4.11-17.143-3.924 318.677 0.163 293.607 0.209 304.040 1.357 307.457 4.7 13.992 14.229 23.967 27.54 28.83l4.718 1.723 187.176 0.643 5.404 1.886c17.168 5.993 28.412 20.746 29.447 38.637 0.951 16.491-8.517 33.016-22.973 40.095-10.865 5.32-2.081 4.896-103.536 4.995-49.705 0.049-93.122-0.136-96.483-0.41zM672.503 702.349c-15.543-3.906-28.117-16.726-31.556-32.169-2.313-10.411-0.435-22.422 4.958-31.688 1.579-2.716 20.467-22.031 74.159-75.839l72.043-72.196-415.489-0.333-5.146-1.754c-20.101-6.844-32.013-25.050-29.82-45.577 1.878-17.57 13.981-31.684 31.75-37.030 3.68-1.109 13.486-1.169 211.276-1.344l207.42-0.183-72.422-72.512c-72.064-72.154-72.435-72.542-75.029-77.798-3.631-7.364-4.864-13.406-4.489-21.961 1.523-34.637 41.156-52.681 69.005-31.42 2.121 1.617 52.787 51.951 112.589 111.851 116.873 117.056 111.799 111.693 114.837 121.446 4.194 13.47 2.112 27.226-5.798 38.357-4.821 6.78-221.167 222.503-225.916 225.264-6.861 3.989-12.194 5.44-20.8 5.658-5.329 0.135-8.913-0.105-11.571-0.774z" />
<glyph unicode="&#xe921;" glyph-name="mail" d="M153.592 831.011c-53.76-7.324-98.258-49.191-108.43-102.019-2.739-14.222-2.71-11.004-2.486-286.134l0.217-264.683 1.403-7.074c5.615-28.318 16.165-48.832 35.185-68.416 20.921-21.542 48.049-34.705 78.31-37.999 8.488-0.926 700.096-0.951 708.369-0.026 62.212 6.95 109.798 55.846 114.79 117.948 0.922 11.507 0.922 519.283 0 530.79-3.221 40.055-23.962 75.231-57.634 97.744-15.765 10.541-35.486 17.711-55.535 20.189-8.951 1.106-706.008 0.795-714.188-0.32zM861.099 745.496c8.687-1.662 18.739-7.482 24.090-13.942 2.53-3.061 5.948-8.264 5.619-8.566-1.54-1.423-378.291-264.692-378.786-264.692-0.559 0-376.394 262.623-378.433 264.437-0.706 0.628 3.156 6.62 6.851 10.629 5.289 5.737 15.266 11.063 23.211 12.39 1.84 0.307 157.601 0.59 347.876 0.631 303.215 0.066 345.152-0.040 349.572-0.886zM307.203 496.329c97.286-68.096 179.018-125.205 181.625-126.908 12.041-7.863 27.908-8.969 40.951-2.85 2.812 1.318 72.943 50.018 184.764 128.29 99.127 69.394 180.378 126.169 180.557 126.169s0.324-97.642 0.324-216.98c0-213.854-0.017-217.054-1.267-221.943-3.755-14.673-15.582-26.705-30.571-31.1-3.661-1.071-21.786-1.143-347.337-1.323-237.015-0.128-345.318 0.021-349.411 0.486-17.012 1.941-30.919 13.013-36.377 28.971l-1.431 4.181-0.164 218.893c-0.132 175.518-0.005 218.799 0.643 218.409 0.445-0.268 80.406-56.201 177.693-124.294z" />
<glyph unicode="&#xe922;" glyph-name="map-pin" d="M485.295 959.309c-120.976-7.945-231.716-65.562-307.084-159.773-74.866-93.583-107.004-215.969-87.5-333.202 23.561-141.611 122.001-291.951 284.749-434.876 43.757-38.426 107.808-87.556 120.258-92.241 12.053-4.54 23.514-4.105 34.598 1.314 11.315 5.525 59.221 41.498 93.269 70.033 110.285 92.433 195.938 191.65 249.024 288.461 56.145 102.391 76.395 202.786 60.668 300.776-30.549 190.386-182.946 336.077-374.037 357.579-22.485 2.53-52.766 3.32-73.946 1.93zM543.061 872.807c93.978-8.791 180.224-56.096 238.080-130.583 53.666-69.095 79.287-159.226 69.47-244.373-10.389-90.095-59.298-187.494-143.407-285.589-31.445-36.672-75.217-80.657-115.153-115.716-30.332-26.628-79.057-65.374-80.87-64.307-4.297 2.526-35.191 26.786-53.751 42.21-120.914 100.484-210.275 210.355-253.863 312.124-16.792 39.211-26.107 73.314-31.006 113.532-1.646 13.513-1.64 53.169 0.011 68.179 11.115 101.061 64.388 190.173 147.737 247.124 64.442 44.032 144.66 64.704 222.753 57.399zM493.333 703.317c-40.358-4.963-74.158-21.3-102.307-49.45-31.407-31.406-48.264-70.197-49.912-114.85-3.011-81.605 53.358-154.509 133.246-172.335 55.765-12.446 113.822 3.691 155.307 43.166 69.252 65.89 70.592 176.277 2.957 244.138-26.074 26.161-57.92 42.244-95.94 48.453-7.505 1.225-35.857 1.799-43.349 0.878zM528.051 616.854c33.796-6.771 59.533-32.32 67.063-66.58 1.963-8.938 1.929-24.735-0.081-34.092-7.305-34.069-34.675-60.655-68.497-66.543-8.166-1.421-22.511-1.31-30.473 0.23-34.837 6.754-61.833 34.027-68.062 68.779-1.507 8.388-1.361 22.639 0.316 30.782 3.716 18.089 11.58 32.39 24.823 45.145 13.952 13.44 30.084 21.040 49.839 23.487 4.254 0.527 20.267-0.244 25.071-1.207z" />
<glyph unicode="&#xe923;" glyph-name="maximize" d="M636.117 874.022c-17.805-1.806-33.655-15.564-37.666-32.691-1.472-6.307-1.011-17.733 0.947-23.478 3.703-10.841 11.558-19.891 21.449-24.721 10.449-5.101 5.965-4.867 93.547-4.867h77.687l-114.5-114.653c-120.367-120.527-116.958-116.955-120.269-126.079-8.431-23.22 4.241-48.521 27.994-55.898 10.88-3.379 25.233-1.425 34.927 4.749 2.88 1.835 35.682 34.223 118.298 116.799l114.313 114.258 0.192-79.416c0.213-88.457-0.128-81.725 4.659-91.639 9.033-18.694 31.078-28.169 50.935-21.89 14.101 4.46 24.9 15.629 28.941 29.93 1.131 3.997 1.182 10.14 1.182 139.256v135.075l-1.754 5.146c-5.705 16.758-18.935 27.747-35.981 29.884-4.915 0.617-258.914 0.841-264.9 0.234zM416.378 403.635c-5.896-1.545-11.783-4.523-16.642-8.418-2.123-1.702-54.368-53.619-116.101-115.375l-112.241-112.282-0.643 161.126-2.012 5.214c-9.718 25.19-37.248 35.652-61.023 23.189-6.218-3.255-14.35-11.772-17.61-18.432-4.889-9.997-4.559 0.666-4.559-146.974 0-148.326-0.372-136.947 4.823-147.473 4.916-9.958 13.204-17.237 24.205-21.257l4.718-1.724h274.010l4.718 1.724c6.816 2.487 11.35 5.38 16.486 10.517 8.008 8.009 11.776 16.435 12.389 27.695 1.062 19.597-10.356 36.527-29.097 43.153l-5.139 1.813-160.763 0.35 230.408 230.566 2.637 5.466c1.451 3.008 3.085 7.206 3.631 9.327 1.297 5.039 1.301 15.582 0.004 20.582-5.943 23.006-29.585 37.141-52.2 31.211z" />
<glyph unicode="&#xe924;" glyph-name="menu" d="M124.139 746.689c-11.503-1.68-19.794-5.839-27.118-13.605-21.478-22.775-11.724-59.876 18.435-70.109l5.146-1.746h782.793l5.146 1.752c7.113 2.422 12.732 5.861 17.673 10.819 24.99 25.056 10.483 67.715-24.687 72.607-4.634 0.644-772.997 0.923-777.386 0.282zM121.156 490.398c-28.377-4.745-43.939-35.866-30.942-61.875 5.197-10.402 15.793-18.931 27.493-22.131 3.981-1.088 22.681-1.152 391.076-1.335 257.041-0.128 388.557 0.026 391.846 0.452 31.445 4.113 47.97 37.632 31.953 64.828-5.602 9.51-17.131 17.553-28.356 19.78-4.416 0.875-47.228 0.973-392.363 0.909-213.071-0.043-388.89-0.324-390.707-0.627zM119.040 234.099c-11.277-2.449-22.12-10.411-28.12-20.651-4.744-8.094-6.661-21.338-4.455-30.771 3.607-15.424 15.817-27.977 30.991-31.859 4.91-1.254 8.911-1.267 394.831-1.267 345.574 0 390.31 0.111 393.707 0.973 11.571 2.931 23.168 12.087 28.092 22.182 11.648 23.885 0.145 51.84-24.815 60.297l-5.231 1.775-390.43 0.111c-332.088 0.094-391.052-0.021-394.569-0.789z" />
<glyph unicode="&#xe925;" glyph-name="message-square" d="M203.17 874.391c-31.649-2.457-63.632-18.236-84.777-41.825-19.817-22.108-30.804-48.373-32.83-78.485-0.448-6.659-0.605-121.719-0.48-353.036 0.175-325.35 0.243-343.356 1.317-347.012 5.791-19.742 22.124-32.486 41.642-32.486 9.954 0 19.442 3.366 27.337 9.694 2.123 1.698 39.316 38.566 82.652 81.924l78.793 78.835h250.985c274.295 0 257.143-0.226 272.892 3.631 46.076 11.285 82.236 46.929 93.879 92.531 3.84 15.044 3.52-5.743 3.738 241.847 0.218 248.507 0.461 232.214-3.712 248.408-11.823 45.894-48.418 81.941-94.276 92.869-15.62 3.723 10.266 3.44-324.429 3.543-168.216 0.051-308.945-0.146-312.73-0.44zM824.346 786.635c12.958-4.888 21.858-13.966 26.462-27.002l1.818-5.14 0.175-218.694c0.162-197.462 0.081-219.192-0.841-223.838-3.093-15.616-14.946-28.275-30.852-32.956-3.652-1.075-17.993-1.152-267.58-1.459l-263.717-0.32-4.181-1.498c-10.33-3.695-8.797-2.321-63.518-56.943l-50.975-50.889 0.011 291.691c0.013 324.825-0.424 295.896 4.618 306.121 5.318 10.784 16.66 19.72 28.175 22.199 3.554 0.765 50.028 0.883 309.711 0.788l305.527-0.112 5.167-1.949z" />
<glyph unicode="&#xe926;" glyph-name="minimize" d="M889.916 874.401c-5.082-0.763-9.348-2.188-14.814-4.951-4.22-2.13-11.84-9.603-119.799-117.464l-115.298-115.189v78.013c0 68.776-0.119 78.6-1.024 82.97-6.899 33.468-47.838 45.801-72.034 21.699-4.092-4.075-5.773-6.344-7.876-10.639-5.022-10.246-4.642 2.432-4.459-148.935l0.166-135.682 1.724-4.715c4.736-12.962 13.931-22.131 26.825-26.748l5.542-1.984h271.437l5.696 1.869c39.066 12.804 39.701 67.158 0.951 81.313l-4.719 1.723-162.057 0.346 231.061 231.212 2.658 5.467c8.533 17.568 4.604 38.135-9.779 51.153-8.789 7.957-22.746 12.259-34.202 10.54zM160.486 404.518c-14.906-3.588-27.591-16.235-31.542-31.45-1.306-5.030-1.306-15.552 0-20.582 3.081-11.866 11.721-22.707 22.223-27.883 9.728-4.796 5.226-4.574 93.253-4.587l78.787-0.013-115.537-115.618c-113.222-113.301-115.584-115.716-117.856-120.444-3.491-7.258-4.561-12.049-4.522-20.258 0.053-11.243 4.104-21.214 11.847-29.163 13.186-13.542 33.086-16.836 50.346-8.341l5.283 2.603 230.554 230.391 0.203-79.735c0.227-89.271-0.19-81.638 5.045-92.224 3.303-6.677 10.356-14.127 16.66-17.591 14.101-7.753 31.454-7.185 44.608 1.455 10.633 6.985 17.263 17.408 19.046 29.943 0.529 3.708 0.674 41.374 0.533 136.973-0.183 124.548-0.256 132.075-1.344 135.718-4.531 15.177-16.354 26.807-31.074 30.571-4.864 1.242-7.607 1.267-138.808 1.216-114.298-0.047-134.41-0.192-137.706-0.981z" />
<glyph unicode="&#xe927;" glyph-name="moon" d="M474.415 874.674c-37.828-4.151-66.737-10.353-98.063-21.036-52.441-17.885-99.241-44.739-142.351-81.681-10.589-9.073-37.463-36.393-46.604-47.375-57.378-68.937-90.31-148.593-98.791-238.953-1.145-12.203-1.142-59.887 0.004-72.043 1.884-19.985 4.873-39.202 8.853-56.922 39.716-176.849 185.559-308.796 365.379-330.577 18.679-2.261 29.414-2.867 50.782-2.867 32.922 0 60.42 2.918 90.957 9.651 174.242 38.421 304.636 178.513 331.025 355.631 2.769 18.607 3.294 27.443 2.005 33.758-4.275 20.911-21.047 34.743-42.125 34.743-10.466 0-17.404-2.526-28.531-10.389-30.161-21.303-63.309-35.674-98.458-42.679-19.29-3.844-26.462-4.489-50.138-4.493-22.187-0.004-27.174 0.363-43.934 3.243-72.653 12.497-137.655 57.28-175.616 120.994-38.234 64.163-46.464 142.258-22.438 212.832 7.881 23.136 18.85 44.749 32.917 64.838 9.643 13.77 11.665 19.162 11.618 30.972-0.081 22.741-17.139 40.757-40.068 42.316-2.295 0.157-5.188 0.173-6.426 0.038zM393.737 759.797c-46.017-141.909 5.606-297.636 127.295-383.985 87.539-62.123 200.747-79.377 302.319-46.071 5.423 1.775 9.946 3.132 10.052 3.017 0.111-0.119-0.879-2.965-2.193-6.327-44.267-113.045-144.055-193.958-262.946-213.193-23.228-3.759-55.433-5.252-77.897-3.614-96.162 7.006-183.313 52.796-243.295 127.834-75.48 94.421-94.926 223.454-50.683 336.29 34.622 88.3 102.983 157.185 191.244 192.711 5.126 2.063 9.359 3.761 9.407 3.772s-1.439-4.684-3.303-10.432z" />
<glyph unicode="&#xe928;" glyph-name="more-vertical" d="M504.627 831.942c-39.1-3.312-70.507-32.321-77.239-71.333-1.572-9.118-0.976-25.030 1.271-33.96 9.835-39.039 43.435-65.324 83.362-65.21 58.948 0.17 99.925 58.205 80.324 113.763-12.971 36.772-48.922 60.027-87.718 56.74zM500.446 533.124c-35.814-5.641-63.113-30.255-71.804-64.734-2.222-8.823-2.819-24.785-1.267-33.894 10.846-63.629 84.582-93.099 136.013-54.357 29.675 22.353 41.378 61.402 28.958 96.61-10.3 29.201-35.772 50.692-66.125 55.787-5.551 0.931-21.312 1.292-25.775 0.589zM497.549 234.125c-34.014-6.217-60.531-30.895-68.885-64.119-2.294-9.122-2.853-24.405-1.246-34.027 5.892-35.23 32.256-62.656 67.409-70.14 9.314-1.98 24.431-1.98 33.749 0 34.837 7.415 61.227 34.381 67.439 68.919 1.481 8.205 1.485 22.251 0.017 29.828-6.801 35.102-32.209 61.274-66.965 68.979-6.485 1.438-24.909 1.762-31.518 0.559z" />
<glyph unicode="&#xe929;" glyph-name="paperclip" d="M662.844 942.883c-50.513-3.055-95.283-21.364-132.181-54.062-13.018-11.538-410.714-410.028-418.064-418.899-38.879-46.938-60.98-98.522-68.645-160.222-1.652-13.299-1.663-51.524-0.017-64.964 9.949-81.271 48.749-151.748 110.731-201.131 44.222-35.23 95.276-56.384 153.443-63.586 10.944-1.353 42.85-1.941 54.352-1.003 65.258 5.333 121.497 28.267 172.091 70.182 8.764 7.262 408.115 405.773 413.308 412.442 8.725 11.2 11.388 26.402 6.946 39.654-2.423 7.232-5.030 11.371-10.833 17.203-13.739 13.807-35.063 16.351-52.139 6.221-3.008-1.783-48.811-47.198-206.801-205.039-145.963-145.83-204.919-204.331-210.010-208.38-32.277-25.677-69.54-41.118-111.276-46.106-10.559-1.263-36.484-1.079-47.598 0.333-39.779 5.056-75.164 19.763-107.095 44.506-9.166 7.1-26.841 24.623-34.274 33.98-25.479 32.060-40.675 68.958-45.588 110.694-1.046 8.887-1.053 36.403-0.012 45.022 5.094 42.172 20.105 78.353 46.164 111.279 6.267 7.919 405.105 407.626 415.302 416.211 43.324 36.464 105.037 39.951 152.572 8.622 28.45-18.753 47.479-46.995 54.818-81.356 1.69-7.921 1.783-9.242 1.783-25.085 0-15.793-0.098-17.179-1.758-24.928-4.207-19.625-11.652-36.037-23.846-52.579-5.077-6.883-9.63-11.458-253.521-254.819-152.974-152.64-155.086-154.714-160.242-157.359-7.431-3.81-12.34-4.813-21.79-4.467-6.366 0.239-8.492 0.585-12.137 1.993-12.588 4.864-21.883 14.362-26.219 26.795-1.228 3.52-1.463 5.551-1.491 12.864-0.035 9.626 0.535 12.109 4.652 20.258 2.141 4.237 13.298 15.539 188.311 190.716l186.039 186.211 2.641 5.467c8.542 17.688 5.572 36.403-7.923 49.895-16.299 16.301-41.024 16.817-59.046 1.233-9.515-8.225-371.359-371.037-375.077-376.080-37.996-51.52-33.744-120.994 10.181-166.374 45.964-47.488 118.381-52.48 171.435-11.814 6.006 4.604 406.111 403.973 414.819 414.055 34.411 39.849 53.069 92.713 51.307 145.367-3.575 106.723-83.746 193.755-189.542 205.767-8.926 1.014-26.923 1.697-33.771 1.283z" />
<glyph unicode="&#xe92a;" glyph-name="plus" d="M502.042 787.863c-14.908-3.587-27.49-16.005-31.659-31.246-1.028-3.771-1.122-13.375-1.297-135.116l-0.192-131.057h-130.137c-127.848 0-130.225-0.021-135.224-1.28-28.111-7.083-41.437-38.596-26.847-63.492 2.432-4.151 9.21-11.213 13.483-14.050 1.937-1.284 5.894-3.251 8.794-4.369l5.271-2.035 264.655-0.337 0.192-131.366c0.218-147.2-0.252-133.355 4.881-143.902 3.315-6.814 11.977-15.505 18.752-18.825 7.147-3.494 12.369-4.523 21.227-4.181 16.162 0.627 29.431 9.097 36.301 23.164 5.227 10.709 4.868-0.090 4.868 145.485v129.63l264.683 0.333 5.214 2.014c13.5 5.21 22.933 15.283 27.029 28.864 1.877 6.229 1.596 17.835-0.593 24.452-4.864 14.72-17.037 25.826-31.706 28.932-3.823 0.811-22.788 0.947-134.528 0.956l-130.078 0.009-0.175 131.7-0.171 131.698-1.745 5.146c-7.322 21.571-29.397 34.071-50.999 28.874z" />
<glyph unicode="&#xe92b;" glyph-name="search" d="M452.471 874.694c-96.434-5.179-182.668-42.416-250.778-108.29-119.919-115.981-150.804-297.604-76.022-447.052 54.947-109.811 158.489-186.688 278.883-207.057 35.194-5.956 72.677-6.959 109.025-2.914 66.129 7.356 133.274 34.176 186.394 74.449 4.523 3.43 8.422 6.234 8.674 6.234 0.247 0 36.493-35.994 80.542-79.987 61.222-61.146 80.998-80.529 83.955-82.283 21.513-12.779 49.643-4.834 60.727 17.152 6.635 13.158 5.841 30.071-1.984 42.342-1.865 2.918-24.73 26.206-82.283 83.806-43.836 43.87-79.701 79.945-79.701 80.166 0 0.226 3.17 4.629 7.049 9.788 64.572 85.918 89.937 196.561 69.402 302.725-9.438 48.809-28.565 95.956-55.714 137.327-64.93 98.945-169.869 161.823-287.671 172.367-10.923 0.977-41.374 1.718-50.496 1.228zM492.42 788.249c113.741-8.905 212.565-82.077 254.524-188.456 18.658-47.312 24.764-100.469 17.434-151.776-12.719-88.977-65.929-168.107-144.196-214.43-35.823-21.201-76.642-34.577-120.431-39.454-20.181-2.249-52.348-1.502-74.292 1.728-119.022 17.515-216.793 106.261-245.637 222.967-6.417 25.963-8.394 43.106-8.374 72.58 0.017 23.689 0.879 34.078 4.432 53.388 20.429 111.035 102.615 201.683 211.115 232.853 17.348 4.984 38.794 8.877 58.083 10.543 8.947 0.773 37.747 0.806 47.343 0.055z" />
<glyph unicode="&#xe92c;" glyph-name="settings" d="M498.462 959.589c-0.887-0.13-3.78-0.544-6.434-0.92-31.808-4.513-62.985-23.241-82.783-49.728-17.068-22.832-24.609-45.614-25.819-78.001l-0.484-12.96-2.343-4.729c-3.325-6.71-6.713-9.791-13.406-12.193-17.583-6.31-24.913-4.852-37.974 7.553-11.064 10.509-20.060 16.812-33.281 23.319-68.404 33.665-152.14-0.862-177.19-73.062-8.065-23.245-9.167-50.15-3.026-73.879 5.761-22.261 15.876-40.294 32.709-58.318 7.153-7.66 9.384-11.502 10.378-17.879 1.794-11.499-4.978-26.049-14.893-31.999-4.514-2.709-10.673-3.985-19.302-4-24.803-0.040-52.661-9.742-73.982-25.764-53.925-40.526-66.821-116.746-29.31-173.249 14.228-21.436 35.132-38.404 59.049-47.94 15.128-6.033 26.735-8.29 46.311-9.015 15.423-0.572 17.787-1.118 24.308-5.611 8.844-6.089 13.496-18.645 10.803-29.15-1.465-5.717-3.555-9.015-9.989-15.774-16.718-17.562-27.274-36.442-32.859-58.769-17.697-70.741 27.237-142.123 98.65-156.71 41.822-8.546 83.089 3.571 115.297 33.856 8.719 8.201 12.797 10.317 20.641 10.731 11.069 0.58 23.083-5.090 28.676-13.53 3.749-5.662 4.41-8.542 4.992-21.73 0.377-8.572 0.996-14.238 2.213-20.258 14.207-70.315 81.31-115.076 151.343-100.958 59.452 11.985 102.426 64.486 102.426 125.133 0 4.826 0.29 10.334 0.649 12.237 2.692 14.421 17.83 25.084 31.923 22.481 6.588-1.22 11.042-3.831 18.317-10.739 21.073-20.015 44.335-31.347 72.465-35.307 9.545-1.344 30.029-1.041 38.618 0.572 56.589 10.633 97.894 53.641 105.715 110.076 1.045 7.569 1.020 25.395-0.051 33.126-3.857 27.776-15.863 52.224-36.262 73.809-6.229 6.588-7.676 8.789-9.156 13.926-3.767 13.043 2.944 27.43 15.543 33.327 4.113 1.924 4.727 2.022 15.923 2.492 6.404 0.269 14.541 0.951 18.078 1.523 42.244 6.797 77.423 32.777 95.842 70.784 23.787 49.067 14.229 106.803-24.124 145.743-15.121 15.352-31.71 25.628-51.797 32.086-13.111 4.215-22.434 5.671-40.708 6.354-12.425 0.465-12.757 0.514-17.024 2.511-5.329 2.494-11.021 7.906-11.716 11.136-0.256 1.215-1.165 3.933-2.014 6.040-5.278 13.109-2.889 22.249 9.195 35.135 20.237 21.585 31.488 45.419 34.991 74.138 1.246 10.199 0.444 29.744-1.63 39.661-10.782 51.575-48.964 89.673-101.005 100.779-7.898 1.685-9.276 1.784-24.764 1.784-15.492 0-16.866-0.099-24.764-1.784-25.557-5.454-44.518-15.407-64.815-34.014-8.469-7.768-11.789-9.699-18.5-10.762-10.236-1.622-21.414 3.208-27.294 11.796-3.712 5.423-4.292 7.892-4.873 20.643-0.286 6.368-1.007 14.601-1.6 18.296-8.951 55.812-52.855 99.011-108.804 107.061-6.532 0.94-26.231 1.335-31.078 0.624zM520.567 873.493c7.663-1.623 14.635-5.498 20.659-11.485 9.877-9.814 12.211-16.262 13.18-36.453 0.41-8.565 1.097-15.394 1.958-19.521 13.495-64.506 78.366-104.305 141.722-86.952 18.325 5.020 33.907 13.923 48.811 27.893 8.772 8.224 13.231 11.194 20.058 13.364 35.349 11.242 67.324-24.855 51.511-58.156-2.714-5.707-4.629-8.264-11.921-15.89-15.501-16.21-25.459-35.666-29.713-58.037-1.186-6.247-1.434-9.777-1.429-20.417 0.004-13.752 1.028-21.266 4.42-32.393 0.823-2.702 1.967-6.914 2.539-9.359 2.846-12.118 14.148-30.284 26.462-42.524 22.229-22.097 50.342-33.109 84.506-33.109 9.613 0 13.623-0.866 21.175-4.561 9.527-4.668 17.088-13.197 21.056-23.757 2.351-6.259 2.714-19.759 0.695-25.715-4.796-14.135-14.037-23.723-27.392-28.429-2.705-0.956-7.066-1.472-18.044-2.138-22.413-1.365-37.568-5.295-52.74-13.67-61.845-34.155-78.635-114.091-35.695-169.954 1.493-1.946 5.751-6.775 9.459-10.735 7.599-8.115 10.739-13.338 12.745-21.171 7.74-30.263-19.277-58.505-49.783-52.036-7.629 1.613-14.276 5.338-21.419 11.994-8.38 7.799-12.855 11.507-18.517 15.33-56.503 38.127-134.963 17.404-165.389-43.691-7.966-15.996-11.081-29.35-11.853-50.846-0.585-16.162-1.011-18.295-5.346-26.692-4.774-9.254-14.319-17.199-24.555-20.442-6.933-2.197-19.426-2.048-25.946 0.311-13.867 5.018-23.761 15.471-27.575 29.133-0.495 1.771-1.161 8.623-1.481 15.223-1.173 24.149-7.010 42.679-19.243 61.065-13.163 19.785-30.751 33.685-54.721 43.243-43.317 17.28-89.102 8.213-123.497-24.457-7.135-6.775-11.357-9.626-18.010-12.151-6.673-2.534-20.353-2.722-27.015-0.371-19.705 6.955-31.924 26.419-28.944 46.106 1.512 9.984 5.287 17.271 13.158 25.395 17.065 17.613 26.821 35.614 31.702 58.496 2.43 11.388 2.572 32.431 0.295 43.669-8.285 40.892-36.191 73.233-74.707 86.583-11.55 4.002-20.929 5.564-37.022 6.161-18.12 0.674-23.685 2.227-32.804 9.165-23.401 17.805-21.006 54.771 4.52 69.769 7.332 4.309 11.739 5.346 25.39 5.99 12.244 0.572 19.127 1.532 27.513 3.831 44.601 12.237 75.848 47.908 84.508 96.476 0.542 3.039 0.844 9.586 0.816 17.688-0.051 14.651-1.428 23.183-5.771 35.736-5.966 17.247-13.42 29.267-27.284 43.999-7.885 8.378-11.485 14.584-13.19 22.74-4.026 19.257 5.472 38.572 23.136 47.046 6.822 3.273 10.923 4.19 18.653 4.171 11.633-0.029 19.972-3.618 30.022-12.919 16.55-15.317 29.231-23.202 46.315-28.799 12.993-4.256 19.576-5.203 35.904-5.163 15.399 0.038 20.364 0.702 32.658 4.374 2.734 0.816 6.961 1.969 9.393 2.561 12.342 3.005 31.962 15.606 43.659 28.042 21.103 22.432 31.351 49.48 31.356 82.754 0 14.068 3.499 23.030 12.54 32.125 10.202 10.259 24.461 14.54 38.511 11.562zM495.565 618.418c-59.622-6.112-110.764-41.501-137.023-94.822-8.173-16.593-13.11-32.597-16.176-52.442-1.548-10.014-1.551-35.763-0.005-45.862 6.098-39.863 23.325-73.523 51.483-100.591 25.495-24.508 56.541-39.625 93.819-45.683 9.899-1.609 37.952-1.579 48.427 0.051 48.7 7.59 91.085 34.364 117.722 74.377 48.081 72.222 34.645 168.26-31.475 224.929-24.576 21.065-53.884 34.192-87.445 39.165-7.91 1.172-31.347 1.695-39.326 0.878zM528.171 531.55c33.519-6.596 59.601-32.474 66.88-66.355 1.843-8.58 1.975-25.045 0.269-32.956-10.236-47.39-54.208-76.693-100.821-67.196-31.603 6.443-57.335 31.121-65.126 62.46-15.039 60.493 37.73 116.064 98.799 104.047z" />
<glyph unicode="&#xe92d;" glyph-name="share" d="M751.59 916.247c-39.91-4.422-74.176-20.381-102.182-47.585-26.748-25.984-42.987-56.627-49.766-93.91-1.57-8.633-1.702-10.714-1.741-27.98-0.043-20.010 0.414-24.626 3.938-39.779 0.896-3.836 1.378-7.194 1.075-7.461-0.388-0.343-203.612-118.964-223.547-130.484-1.711-0.989-1.775-0.957-6.167 3.187-25.348 23.911-57.345 39.158-93.857 44.723-8.931 1.361-35.082 1.542-43.935 0.305-58.631-8.197-106.81-42.571-132.217-94.328-23.585-48.051-23.588-102.703-0.009-150.515 25.19-51.081 71.87-85.171 128.688-93.986 10.95-1.702 37.856-1.707 48.884-0.013 34.316 5.269 67.617 21.167 91.296 43.58l5.512 5.218 51.937-30.259c176.111-102.592 173.508-101.052 173.436-102.562-0.038-0.789-0.96-5.777-2.048-11.081-2.931-14.315-3.563-21.982-3.183-38.746 0.269-11.793 0.653-16.457 1.98-23.97 13.043-73.711 69.568-129.088 143.543-140.625 11.904-1.856 39.953-1.702 51.456 0.282 50.313 8.678 92.796 36.924 118.814 78.993 23.211 37.538 30.925 83.46 21.321 126.959-18.342 83.093-95.953 140.228-180.783 133.094-38.097-3.2-75.861-19.955-102.613-45.521l-4.322-4.134-7.667 4.429c-4.215 2.441-55.108 32.077-113.088 65.86l-105.426 61.427 1.418 5.884c5.93 24.602 6.335 51.43 1.141 75.482-0.879 4.070-1.757 8.282-1.953 9.365l-0.355 1.963 112.68 65.769c97.387 56.842 112.823 65.656 113.754 64.944 0.589-0.453 3.098-2.713 5.572-5.022 24.623-22.961 57.553-38.164 93.589-43.207 8.038-1.125 35.046-1.142 42.773-0.026 20.305 2.93 36.13 7.77 54.029 16.525 74.688 36.528 111.949 121.599 88.32 201.652-18.684 63.306-72.73 110.299-138.445 120.378-9.553 1.465-33.242 2.131-41.852 1.177zM783.701 829.657c35.025-6.642 62.383-34.554 68.25-69.633 1.604-9.593 1.050-24.945-1.22-33.834-8.469-33.147-34.078-57.383-67.302-63.699-8.866-1.686-23.287-1.567-31.991 0.264-33.527 7.054-59.153 32.363-66.509 65.687-1.788 8.112-2.121 24.913-0.64 32.483 9.19 46.982 53.299 77.478 99.413 68.733zM271.405 531.2c33.872-5.99 61.088-32.538 68.278-66.603 1.987-9.417 1.997-24.521 0.022-33.792-6.534-30.677-28.924-55.475-58.147-64.414-17.028-5.205-37.195-4.838-53.376 0.973-12.136 4.361-22.199 10.829-31.751 20.412-16.842 16.892-24.892 36.262-24.892 59.9 0 53.013 47.544 92.777 99.866 83.524zM788.254 231.642c25.446-6.677 44.924-22.481 56.341-45.726 5.594-11.388 7.706-20.096 8.132-33.57 0.802-25.233-7.023-45.286-24.589-63.010-16.87-17.020-36.079-24.998-60.147-24.977-22.451 0.013-41.532 7.505-58.048 22.788-28.378 26.261-35.115 70.281-15.795 103.245 5.214 8.9 7.228 11.614 13.141 17.707 12.574 12.958 28.241 21.444 45.619 24.708 8.495 1.596 27.162 0.981 35.345-1.165z" />
<glyph unicode="&#xe92e;" glyph-name="sun" d="M501.705 959.027c-15.249-4.149-27.477-16.444-31.33-31.509-1.775-6.947-1.762-99.443 0.017-105.809 5.5-19.679 21.811-32.367 41.604-32.367 19.631 0 36.395 12.793 41.634 31.77 1.050 3.796 1.143 8.224 1.143 53.984v49.849l-1.754 5.146c-4.591 13.477-14.046 23.226-26.978 27.816-5.952 2.112-18.556 2.693-24.337 1.12zM171.425 821.973c-20.193-4.526-33.846-21.504-33.833-42.073 0.007-11.113 3.75-20.512 11.782-29.588 9.723-10.987 63.725-64.080 67.936-66.792 28.624-18.438 66.345 2.131 66.345 36.178 0 5.932-1.895 13.495-4.933 19.679-2.246 4.573-4.212 6.67-37.793 40.286-38.322 38.362-38.268 38.316-48.289 41.379-6.050 1.849-15.306 2.255-21.216 0.931zM835.213 821.991c-2.539-0.499-7.164-2.189-10.611-3.879l-6.11-2.996-34.010-33.849c-36.894-36.724-38.861-39-41.984-48.559-2.219-6.79-2.53-18.41-0.657-24.49 9.126-29.615 43.157-41.2 67.324-22.918 6.878 5.204 68.774 67.91 71.317 72.254 19.051 32.509-8.457 71.666-45.269 64.437zM497.186 703.953c-117.342-6.742-215.639-93.449-236.936-208.999-3.15-17.088-3.89-25.941-3.901-46.63-0.017-31.066 3.881-55.262 13.313-82.654 42.283-122.799 167.722-194.359 294.796-168.183 88.759 18.287 162.756 84.412 190.933 170.624 6.025 18.436 9.822 36.804 11.729 56.734 1.387 14.477 0.896 42.509-0.986 56.329-10.709 78.721-55.138 146.343-122.923 187.091-43.349 26.061-94.793 38.633-146.027 35.689zM536.196 616.917c72.772-10.973 130.21-66.146 143.326-137.668 17.963-97.954-51.529-190.575-150.396-200.457-9.719-0.973-33.771-0.427-42.534 0.96-62.735 9.941-114.98 53.474-135.459 112.866-20.934 60.71-6.078 127.663 38.586 173.91 28.125 29.12 64.187 46.688 105.232 51.264 7.522 0.839 33.54 0.286 41.246-0.875zM36.018 490.667c-11.568-1.997-23.927-10.406-29.77-20.25-12.808-21.581-4.499-49.779 17.88-60.685 8.688-4.233 7.682-4.164 61.418-4.164 53.726 0 52.721-0.068 61.417 4.16 31.721 15.42 32.109 60.996 0.653 76.749-9.009 4.51-5.627 4.267-60.463 4.373-27.24 0.051-50.251-0.030-51.135-0.183zM888.922 490.667c-8.030-1.387-16.051-5.508-22.447-11.533-9.139-8.602-13.116-17.924-13.15-30.81-0.013-6.669 0.218-8.422 1.694-12.864 4.51-13.572 14.541-23.714 27.793-28.1l4.501-1.489h102.916l4.719 1.724c6.814 2.487 11.349 5.38 16.486 10.517 8.009 8.009 11.776 16.435 12.386 27.695 1.062 19.597-10.355 36.527-29.094 43.153l-5.141 1.813-49.527 0.085c-27.238 0.047-50.253-0.038-51.136-0.192zM230.269 218.65c-1.946-0.512-5.998-2.116-9.005-3.575-5.437-2.628-5.666-2.842-40.934-38.106-35.315-35.307-35.478-35.482-38.104-40.926-3.538-7.334-4.612-11.895-4.623-19.618-0.038-27.319 24.926-47.497 51.74-41.818 6.401 1.357 14.090 5.325 19.7 10.167 7.48 6.455 64.509 64.073 66.835 67.52 16.853 24.994 4.523 58.769-24.131 66.095-5.953 1.523-16.177 1.647-21.478 0.26zM773.090 218.679c-15.010-3.644-27.17-15.578-31.309-30.729-1.813-6.63-1.476-17.532 0.734-23.932 3.443-9.963 3.307-9.805 41.169-47.684 35.213-35.23 35.486-35.482 40.917-38.123 33.284-16.179 69.683 13.291 60.676 49.122-0.529 2.108-2.014 6.016-3.294 8.683-2.231 4.651-3.81 6.332-38.379 40.917-39.684 39.71-38.409 38.639-49.498 41.549-5.35 1.404-15.646 1.502-21.018 0.196zM500.42 105.626c-14.967-4.578-26.266-16.243-30.046-31.010-1.775-6.95-1.762-99.443 0.017-105.809 5.534-19.797 21.854-32.414 41.929-32.405 21.12 0.004 38.81 15.241 42.103 36.262 0.542 3.465 0.7 18.146 0.55 52.1l-0.201 47.279-1.754 5.146c-4.591 13.474-14.046 23.223-26.978 27.814-6.899 2.449-18.714 2.735-25.621 0.623z" />
<glyph unicode="&#xe92f;" glyph-name="trash" d="M412.324 916.833c-52.425-6.131-96.301-43.898-109.392-94.163-3.767-14.463-3.997-17.004-4.291-47.437l-0.272-28.141h-86.809c-97.825 0-92.143 0.271-102.729-4.898-20.748-10.129-29.349-35.376-19.299-56.646 3.858-8.165 11.326-15.759 19.432-19.758 8.433-4.16 10.261-4.392 37.222-4.716l24.274-0.291 0.192-284.083 0.193-284.079 1.391-7.078c5.259-26.731 16.287-48.559 33.88-67.046 20.576-21.623 48.271-35.345 78.236-38.771 4.276-0.486 73.097-0.631 231.849-0.491l225.771 0.205 8.038 1.788c50.057 11.127 87.219 46.379 99.349 94.234 4.194 16.546 3.831-10.564 4.041 302.208l0.183 283.115 24.273 0.279c27.204 0.311 27.831 0.397 37.461 5.090 7.078 3.451 14.635 10.794 18.219 17.712 13.257 25.583-1.335 56.597-29.286 62.229-4.339 0.873-15.838 0.999-91.759 0.999h-86.797l-0.294 27.82c-0.316 29.719-0.563 32.539-4.092 46.463-11.102 43.838-46.050 79.572-89.357 91.37-17.387 4.737-8.060 4.376-117.035 4.522-53.773 0.072-99.941-0.124-102.595-0.433zM607.863 830.549c12.053-3.698 22.033-11.772 26.944-21.808 4.463-9.11 4.574-10.013 4.574-37.343v-24.307h-255.475l0.289 24.603c0.323 27.553 0.425 28.297 5.083 37.272 6.127 11.803 18.088 20.436 30.896 22.298 2.327 0.339 42.328 0.542 94.1 0.479 82.458-0.101 90.347-0.202 93.589-1.195zM767.381 381.205c0-276.915-0.013-279.748-1.28-284.689-3.985-15.586-16.602-27.61-32.388-30.869-7.42-1.536-435.889-1.536-443.467-0.004-15.422 3.119-28.695 15.723-32.573 30.929-0.908 3.558-1.008 31.898-1.008 284.139v280.19h510.716v-279.695zM414.897 532.075c-11.578-3.541-21.388-11.639-26.273-21.687-4.991-10.266-4.602 2.21-4.591-147.268 0.010-147.319-0.242-137.788 3.873-146.411 5.419-11.354 15.57-19.853 27.691-23.185 6.842-1.877 17.573-1.553 24.323 0.734 14.541 4.932 25.677 17.361 28.642 31.962 1.476 7.253 1.519 266.509 0.047 273.557-3.004 14.4-14.665 27.409-28.625 31.945-6.558 2.128-18.722 2.299-25.086 0.354zM586.957 532.51c-11.563-2.782-22.643-11.601-27.853-22.161-4.949-10.035-4.604 0.909-4.617-147.635-0.013-130.487 0.013-133.308 1.254-138.163 3.183-12.446 11.401-22.524 22.852-28.023 7.027-3.371 10.961-4.215 19.298-4.134 16.508 0.158 30.131 8.687 37.606 23.539 4.911 9.762 4.582-1.463 4.382 149.090l-0.179 134.754-1.852 5.052c-5.009 13.683-16.158 23.974-29.734 27.447-5.926 1.516-15.394 1.62-21.158 0.235z" />
<glyph unicode="&#xe930;" glyph-name="unlock" d="M499.806 917.497c-45.585-1.98-91.931-17.179-129.926-42.607-56.673-37.926-95.799-96.153-109-162.209-5.055-25.289-5.467-33.896-5.482-114.332l-0.012-64.804-26.533-0.004c-20.175-0.003-28.074-0.234-32.965-0.964-37.055-5.517-68.645-25.237-89.053-55.586-10.068-14.976-16.349-30.669-20.097-50.219l-1.418-7.398-0.222-157.589c-0.15-106.505-0.003-160.030 0.453-165.129 5.481-61.265 51.804-109.367 112.571-116.89 3.735-0.461 102.493-0.674 313.694-0.674 338.453 0 314.487-0.277 330.325 3.819 30.886 7.987 57.685 27.119 75.298 53.747 10.876 16.439 18.159 36.851 20.361 57.062 0.947 8.691 0.947 316.506 0 325.197-6.413 58.859-51.49 105.481-109.858 113.621-6.438 0.898-32.951 1.006-246.814 1.006h-239.604l0.217 72.844c0.234 78.622 0.113 75.627 3.707 91.819 14.301 64.435 64.864 115.314 128.757 129.561 14.123 3.149 20.352 3.794 37.18 3.851 28.19 0.095 49.233-4.614 74.291-16.622 46.592-22.327 81.429-65.99 92.22-115.578 2.769-12.72 5.679-18.501 12.949-25.731 8.158-8.109 18.001-12.169 29.658-12.235 19.695-0.111 36.915 13.087 41.754 32.001 2.458 9.605 1.344 19.286-4.561 39.7-32.866 113.593-139.063 189.504-257.89 184.342zM819.166 447.036c15.108-3.166 28.126-15.727 32.316-31.198 1.771-6.545 1.749-312.602-0.021-319.036-3.998-14.519-15.381-26.257-29.722-30.656-3.725-1.143-14.579-1.182-310.033-1.182h-306.17l-5.23 1.771c-13.679 4.638-24.802 16.533-28.143 30.11-1.533 6.225-1.599 312.653-0.068 318.694 3.916 15.458 17.271 28.518 32.154 31.45 6.987 1.378 608.341 1.421 614.916 0.047z" />
<glyph unicode="&#xe931;" glyph-name="upload" d="M504.832 874.433c-4.599-0.828-11.115-3.282-15.497-5.837-2.816-1.643-29.312-27.733-110.957-109.268-58.992-58.91-109.132-109.28-111.424-111.933-7.59-8.786-10.832-17.617-10.744-29.266 0.090-11.963 3.857-20.722 12.751-29.65 13.269-13.32 32.256-16.195 49.864-7.55 4.658 2.287 7.284 4.827 77.615 75.087l72.795 72.719 0.166-208.708 0.162-208.713 1.724-4.715c3.951-10.829 11.674-19.746 21.141-24.422 23.774-11.742 51.307-0.465 60.173 24.644l1.813 5.137 0.166 208.388 0.166 208.391 145.587-145.517 5.466-2.658c16.26-7.908 35.196-5.23 48.201 6.816 14.383 13.327 17.877 33.562 8.858 51.334-2.569 5.058-4.531 7.065-114.526 117.153-109.756 109.847-112.009 112.052-116.736 114.322-8.393 4.030-18.803 5.681-26.765 4.247zM117.865 361.865c-15.935-4.331-28.102-16.943-31.409-32.559-1.451-6.852-1.437-183.829 0.015-195.004 7.694-59.204 52.476-104.115 111.404-111.731 11.896-1.536 616.157-1.57 627.938-0.034 60.809 7.932 106.603 55.505 112.051 116.407 0.465 5.171 0.627 37.555 0.499 98.402l-0.188 90.692-1.818 5.146c-2.688 7.629-5.227 11.644-10.995 17.395-23.509 23.458-62.66 12.535-71.569-19.968-0.951-3.473-1.092-13.21-1.408-96.806l-0.346-92.941-1.429-4.181c-4.608-13.47-15.957-24.188-29.747-28.087-4.028-1.139-15.177-1.182-308.873-1.182s-304.845 0.043-308.872 1.182c-14.981 4.237-26.026 15.249-30.666 30.579-1.002 3.311-1.124 11.499-1.445 96.883l-0.35 93.265-1.722 4.719c-4.713 12.911-14.316 22.494-26.989 26.935-6.535 2.287-17.437 2.688-24.081 0.887z" />
<glyph unicode="&#xe932;" glyph-name="user" d="M493.013 873.754c-65.421-6.095-123.697-41.053-159.849-95.893-17.441-26.455-28.52-56.346-33.221-89.632-1.827-12.936-1.647-44.131 0.329-56.925 6.119-39.621 20.866-73.751 44.884-103.88 7.186-9.015 24.297-26.142 33.043-33.075 72.079-57.143 170.362-62.477 248.156-13.47 25.387 15.996 49.664 40.282 65.681 65.704 32.23 51.164 41.442 112.878 25.515 170.991-21.406 78.098-85.278 137.291-165.039 152.946-16.64 3.265-43.494 4.725-59.499 3.235zM520.853 788.237c45.564-3.476 84.774-29.781 104.969-70.42 10.103-20.335 14.14-38.906 13.342-61.369-2.249-63.406-49.911-114.878-113.276-122.329-13.248-1.558-32.435-0.21-45.854 3.22-47.223 12.074-83.807 50.619-93.454 98.467-15.008 74.444 39.264 146.607 114.612 152.394 9.715 0.746 10.342 0.748 19.661 0.037zM318.059 361.472c-49.518-5.803-93.256-26.884-128.018-61.709-35.353-35.418-56.094-79.561-61.524-130.931-0.63-5.965-0.849-21.338-0.849-59.499 0-47.893 0.081-51.742 1.175-55.599 3.641-12.834 11.203-22.31 22.358-28.015 23.491-12.011 52.047 0.137 60.492 25.724l1.487 4.506 0.405 54.349c0.429 57.493 0.379 56.521 3.547 69.146 13.212 52.659 57.082 90.893 111.033 96.768 8.707 0.947 358.3 0.947 367.004 0 53.133-5.786 96.99-43.14 110.455-94.076 3.81-14.417 3.695-12.42 4.126-71.194l0.401-54.353 1.668-4.932c2.492-7.36 6.012-13.133 11.115-18.219 20.561-20.489 55.484-14.554 68.476 11.644 4.322 8.708 4.169 6.622 4.433 59.106 0.239 48.222-0.128 60.954-2.163 74.935-9.348 64.205-46.643 120.316-101.952 153.387-23.774 14.212-48.533 23.036-79.057 28.177-8.034 1.353-8.158 1.353-197.786 1.485-151.416 0.102-191.18-0.038-196.826-0.7z" />
<glyph unicode="&#xe933;" glyph-name="users" d="M369.174 874.050c-34.467-3.048-64.991-12.508-92.397-28.634-60.079-35.351-98.007-94.827-105.1-164.807-1.876-18.509-0.029-47.273 4.26-66.343 17.097-76.015 74.661-137.077 149.394-158.479 51.617-14.78 104.963-9.89 153.585 14.076 65.933 32.503 110.131 96.099 117.675 169.316 2.185 21.221 0.644 47.933-3.947 68.343-14.153 62.912-56.209 116.406-113.801 144.741-22.208 10.926-42.368 17.036-67.896 20.576-7.048 0.977-35.187 1.793-41.773 1.211zM677.38 868.603c-21.257-2.758-37.453-21.174-37.402-42.53 0.047-18.522 12.348-35.459 29.577-40.718 17.715-5.406 27.968-9.749 38.571-16.34 27.9-17.343 48.107-45.218 56.256-77.603 14.677-58.319-14.694-120.105-69.419-146.018-6.246-2.958-12.45-5.204-24.764-8.964-14.494-4.428-26.257-17.19-29.342-31.837-2.995-14.221 1.271-28.489 11.652-38.967 7.637-7.714 14.336-11.059 25.186-12.578 6.878-0.964 12.139-0.23 24.077 3.354 111.134 33.37 175.211 149.201 144.431 261.099-19.627 71.346-74.931 127.545-145.835 148.189-6.754 1.967-15.936 3.728-18.27 3.505-0.354-0.034-2.479-0.3-4.719-0.591zM403.177 787.205c28.879-4.153 56.727-19.235 76.448-41.407 38.174-42.915 42.94-106.845 11.524-154.533-35.575-54.008-105.082-73.18-162.819-44.915-69.677 34.112-93.154 121.382-49.949 185.673 27.665 41.166 75.421 62.284 124.795 55.183zM192.29 361.711c-97.303-9.967-175.73-85.018-189.786-181.615-2.107-14.481-2.516-26.398-2.503-73.011 0.015-54.955 0.109-55.765 7.776-67.226 18.116-27.089 59.219-24.179 73.805 5.222 4.312 8.691 4.123 5.986 4.597 65.86 0.372 46.955 0.576 55.095 1.504 59.819 5.572 28.369 17.772 51.106 37.796 70.443 18.569 17.933 39.499 28.608 66.49 33.92l7.075 1.391 180.422 0.226c128.088 0.158 182.476 0.017 187.497-0.482 54.11-5.414 99.012-44.16 111.821-96.491 3.443-14.054 3.635-17.83 3.635-70.494 0-55.014-0.047-54.357 4.8-64.26 17.506-35.763 69.316-30.131 79.927 8.683 1.050 3.849 1.143 8.363 1.143 56.282 0 55.339-0.132 58.462-3.247 76.224-15.484 88.333-85.542 158.272-173.636 173.355-17.267 2.957-11.29 2.876-208.082 2.79-102.063-0.043-188.028-0.329-191.035-0.636zM844.834 356.395c-19.601-4.493-33.067-20.22-34.206-39.945-0.695-12.006 3.883-23.804 12.591-32.465 5.978-5.948 11.059-8.73 21.615-11.827 49.122-14.426 82.355-51.503 92.032-102.682 1.028-5.461 1.19-11.823 1.519-59.819l0.363-53.709 1.886-5.406c8.222-23.595 33.22-35.319 56.29-26.402 11.738 4.535 20.851 14.050 25.233 26.338l1.489 4.181v57.246c0 62.464 0.073 61.018-3.925 80.589-13.628 66.756-59.921 124.109-122.594 151.872-23.066 10.219-41.591 14.481-52.292 12.028z" />
<glyph unicode="&#xe934;" glyph-name="x" d="M246.014 745.213c-20.011-5.513-32.505-21.476-32.473-41.489 0.012-7.41 1.268-12.773 4.61-19.676l2.646-5.467 230.718-230.922-114.236-114.167c-82.145-82.095-115.008-115.341-116.982-118.349-5.089-7.753-6.369-12.386-6.396-23.155-0.022-8.913 0.066-9.557 1.977-14.541 9.79-25.545 38.143-35.895 61.975-22.63 2.734 1.519 29.74 28.151 118.836 117.175l115.297 115.209 114.654-114.598c85.214-85.175 115.712-115.273 118.78-117.231 16.316-10.398 38.788-7.701 52.834 6.349 14.246 14.246 16.58 36.122 5.717 53.577-1.357 2.185-42.786 44.105-116.651 118.037l-114.543 114.654 115.511 115.619c113.361 113.464 115.554 115.708 117.824 120.442 8.388 17.527 5.261 36.609-8.183 49.92-13.303 13.176-31.906 16.174-49.161 7.923l-5.551-2.654-230.912-230.775-114.815 114.717c-88.579 88.503-115.697 115.241-118.68 117.011-9.521 5.655-23.009 7.72-32.798 5.023z" />
<glyph unicode="&#xe935;" glyph-name="zoom-in" d="M449.604 874.063c-1.591-0.132-6.946-0.553-11.9-0.936-169.24-13.074-312.001-140.195-345.037-307.237-30.513-154.285 34.729-310.215 165.941-396.606 90.17-59.371 200.535-77.687 306.455-50.859 47.599 12.053 96.265 35.511 135.134 65.131l8.303 6.327 80.401-80.175c87.117-86.874 83.034-83.102 93.909-86.686 7.898-2.603 18.406-2.505 26.219 0.243 7.697 2.705 11.994 5.453 17.421 11.132 12.821 13.423 15.595 31.74 7.403 48.887l-2.611 5.466-81.050 81.126c-44.578 44.617-80.759 81.301-80.405 81.523 1.156 0.713 11.405 14.63 18.304 24.849 55.053 81.566 76.407 181.615 59.657 279.477-16.452 96.122-69.914 183.429-148.22 242.057-57.131 42.776-121.946 67.782-194.607 75.082-9.318 0.936-48.307 1.78-55.317 1.198zM497.523 787.243c85.21-7.813 163.456-52.802 214.165-123.134 48.183-66.825 66.261-151.264 49.86-232.842-16.922-84.173-69.611-157.001-144.785-200.132-72.171-41.408-161.143-50.347-240.502-24.158-102.435 33.805-178.813 120.149-199.667 225.728-6.38 32.299-7.194 68.612-2.285 101.796 10.849 73.324 49.13 140.322 107.095 187.441 60.94 49.536 137.099 72.547 216.119 65.302zM463.859 660.856c-16.358-2.172-29.794-13.332-35.58-29.551l-1.489-4.181-0.195-46.763-0.194-46.762-92.254-0.41-4.503-1.498c-18.611-6.191-29.913-20.523-31.009-39.326-1.145-19.635 12.143-37.918 31.653-43.55 3.468-1.003 8.536-1.135 49.986-1.318l46.127-0.201 0.194-46.771 0.195-46.767 1.489-4.181c2.577-7.223 5.773-12.237 11.294-17.702 13.171-13.052 32.026-15.927 49.267-7.518 6.515 3.174 14.822 11.358 18.227 17.95 4.996 9.668 4.928 8.887 4.928 59.767v45.214l92.945 0.38 5.146 1.813c7.633 2.697 11.644 5.231 17.399 11.004 23.245 23.317 12.762 62.11-19.328 71.522-3.49 1.024-8.273 1.152-50.010 1.362l-46.153 0.23v45.212c0 42.893-0.064 45.467-1.267 50.172-5.321 20.798-25.732 34.68-46.869 31.873z" />
<glyph unicode="&#xe936;" glyph-name="zoom-out" d="M448.64 873.994c-170.372-9.039-315.323-130.641-353.691-296.719-26.892-116.403 1.639-238.331 77.363-330.607 54.004-65.813 128.838-112.064 211.685-130.837 40.983-9.289 86.809-11.823 128.323-7.1 68.284 7.765 134.494 34.206 188.19 75.153l7.987 6.093 80.725-80.58c78.818-78.677 80.845-80.64 85.871-83.2 8.798-4.48 18.095-6.106 26.722-4.663 20.587 3.43 35.238 19.601 36.429 40.205 0.439 7.676-0.879 13.764-4.676 21.547l-2.982 6.11-161.152 161.446 6.366 8.363c42.125 55.3 67.26 119.552 75.622 193.289 1.63 14.396 1.63 61.508 0 75.9-10.654 93.848-48.836 172.948-114.428 237.055-66.027 64.527-151.283 102.286-244.604 108.329-9.335 0.605-34.133 0.728-43.75 0.218zM483.008 788.244c89.643-4.527 170.27-47.139 224.538-118.668 62.417-82.268 77.188-193.754 38.43-290.091-27.678-68.791-80.239-125.193-146.837-157.577-63.113-30.686-136.201-37.922-204.614-20.267-113.050 29.175-199.586 122.867-219.218 237.342-3.369 19.648-3.875 26.368-3.875 51.456 0 29.858 1.822 45.977 8.073 71.398 30.151 122.644 136.008 213.92 261.418 225.41 9.924 0.909 13.53 1.12 25.728 1.506 2.125 0.067 9.485-0.162 16.358-0.509zM337.041 533.129c-11.503-1.681-19.794-5.841-27.118-13.606-21.484-22.78-11.732-59.874 18.435-70.11l5.146-1.745 133.146-0.179c150.037-0.201 138.543-0.567 149.547 4.796 31.633 15.415 31.441 60.885-0.32 76.476-10.381 5.096-0.738 4.788-147.221 4.69-71.502-0.048-130.729-0.193-131.613-0.321z" />
</font>
</defs>
</svg>
