<svg width="296" height="56" viewBox="0 0 296 56" fill="none" xmlns="http://www.w3.org/2000/svg">
<rect width="55.9669" height="55.9669" rx="27.9835" fill="#44B31F"/>
<path d="M46.4087 13.9981H11.468L9.61273 17.7086H44.5534L46.4087 13.9981Z" fill="white"/>
<path d="M11.468 19.1449H46.4087L44.5534 22.8554H30.1752V27.0989C31.7397 25.8866 33.7295 25.1745 35.8955 25.1745C40.9333 25.1745 44.7853 28.9492 44.7853 33.987C44.7853 38.2507 41.7492 41.1667 37.7621 41.9621L37.9054 43.1086L34.1949 40.403L37.1324 36.9244L37.2903 38.1882C39.1831 37.5351 40.5337 35.8113 40.5337 33.6777C40.5337 30.9454 38.3187 28.6531 35.5863 28.6531C33.5936 28.6531 31.4648 29.7901 30.4584 31.4657C30.2461 31.8192 30.1752 32.2344 30.1752 32.6466V45.4277L25.8462 44.8093V40.0978C24.2936 41.2741 22.3337 41.963 20.2032 41.963C15.1654 41.963 11.3134 38.1883 11.3134 33.1505C11.3134 28.8868 14.3495 25.9708 18.3366 25.1754L18.1933 24.0288L21.9038 26.7344L18.9663 30.213L18.8084 28.9492C16.9155 29.6024 15.565 31.3262 15.565 33.4597C15.565 36.1921 17.78 38.4844 20.5124 38.4844C22.4167 38.4844 24.4451 37.446 25.4997 35.8917C25.7573 35.5121 25.8462 35.0501 25.8462 34.5914V22.8554H9.61273L11.468 19.1449Z" fill="white"/>
<path d="M82.3238 31.5369V41.5839H77.7841V13.8989H82.361V25.5832C83.5146 23.7971 85.6728 22.6435 88.3148 22.6435C92.8545 22.6435 95.236 25.5088 95.236 30.2718V41.5839H90.6963V31.3509C90.6963 28.2624 89.1706 26.7739 86.8636 26.7739C83.9983 26.7739 82.3238 28.7833 82.3238 31.5369Z" fill="white"/>
<path fill-rule="evenodd" clip-rule="evenodd" d="M115.548 35.6301C114.767 39.6489 111.418 42.0677 106.618 42.0677C101.148 42.0677 97.3149 38.0861 97.3149 32.3928C97.3149 26.6251 101.073 22.6435 106.469 22.6435C111.976 22.6435 115.474 26.3274 115.474 32.0579V33.4347L101.631 33.4719C101.966 36.7093 103.678 38.3466 106.692 38.3466C109.185 38.3466 110.823 37.3791 111.343 35.6301H115.548ZM110.971 30.5695C110.971 28.0391 109.222 26.3646 106.506 26.3646C103.827 26.3646 102.19 27.8158 101.743 30.5695H110.971Z" fill="white"/>
<path d="M122.382 41.5839V36.6348L125.061 33.844L129.861 41.5839H135.071L128.224 30.495L135.22 23.2017H129.526L122.382 30.9044V13.8989H117.879V41.5839H122.382Z" fill="white"/>
<path fill-rule="evenodd" clip-rule="evenodd" d="M147.554 38.8675C146.772 40.7653 144.279 42.0677 141.414 42.0677C137.507 42.0677 135.125 39.7978 135.125 36.3372C135.125 32.951 137.581 30.8299 141.935 30.495L147.442 30.0857V29.6764C147.442 27.1833 145.953 26.1786 143.646 26.1786C140.967 26.1786 139.479 27.2949 139.479 29.2299H135.609C135.609 25.2483 138.883 22.6435 143.87 22.6435C148.819 22.6435 151.87 25.3227 151.87 30.4206V41.5839H147.888L147.554 38.8675ZM139.739 36.1511C139.739 37.8256 140.856 38.6442 142.902 38.6442C145.693 38.6442 147.479 36.9697 147.479 34.1417V33.1742L143.646 33.4719C140.818 33.7324 139.739 34.6627 139.739 36.1511Z" fill="white"/>
<path fill-rule="evenodd" clip-rule="evenodd" d="M159.232 41.5839L159.53 38.7187C160.609 40.8397 162.953 42.0677 165.707 42.0677C170.991 42.0677 174.452 38.1605 174.452 32.5044C174.452 26.6995 171.251 22.6063 166.005 22.6063C163.214 22.6063 160.758 23.8343 159.567 25.8809V13.8989H155.027V41.5839H159.232ZM159.604 32.3184C159.604 29.0066 161.651 26.6995 164.777 26.6995C167.977 26.6995 169.875 29.0438 169.875 32.3184C169.875 35.5929 167.977 37.9 164.777 37.9C161.651 37.9 159.604 35.6302 159.604 32.3184Z" fill="white"/>
<path fill-rule="evenodd" clip-rule="evenodd" d="M188.374 38.8675C187.592 40.7653 185.099 42.0677 182.234 42.0677C178.327 42.0677 175.945 39.7978 175.945 36.3372C175.945 32.951 178.401 30.8299 182.755 30.495L188.262 30.0857V29.6764C188.262 27.1833 186.774 26.1786 184.467 26.1786C181.787 26.1786 180.299 27.2949 180.299 29.2299H176.429C176.429 25.2483 179.704 22.6435 184.69 22.6435C189.639 22.6435 192.69 25.3227 192.69 30.4206V41.5839H188.709L188.374 38.8675ZM180.559 36.1511C180.559 37.8256 181.676 38.6442 183.722 38.6442C186.513 38.6442 188.299 36.9697 188.299 34.1417V33.1742L184.467 33.4719C181.639 33.7324 180.559 34.6627 180.559 36.1511Z" fill="white"/>
<path fill-rule="evenodd" clip-rule="evenodd" d="M203.401 42.0677C206.192 42.0677 208.574 40.8397 209.69 38.7187L209.988 41.5839H214.155V13.8989H209.653V25.546C208.499 23.7226 206.23 22.6435 203.662 22.6435C198.117 22.6435 194.769 26.7367 194.769 32.4672C194.769 38.1605 198.08 42.0677 203.401 42.0677ZM204.406 37.9C201.243 37.9 199.308 35.5929 199.308 32.3184C199.308 29.0438 201.243 26.6995 204.406 26.6995C207.569 26.6995 209.616 29.0066 209.616 32.3184C209.616 35.6302 207.569 37.9 204.406 37.9Z" fill="white"/>
<path d="M222.57 16.7642C222.57 18.2898 221.342 19.5178 219.854 19.5178C218.291 19.5178 217.063 18.2898 217.063 16.7642C217.063 15.2385 218.291 14.0478 219.854 14.0478C221.342 14.0478 222.57 15.2385 222.57 16.7642Z" fill="white"/>
<path d="M222.124 41.5839H217.584V23.2017H222.124V41.5839Z" fill="white"/>
<path d="M229.568 41.5839H233.996L236.526 33.6952C237.456 30.6811 237.791 29.3787 237.977 28.5229C238.126 29.4531 238.536 31.202 239.28 33.6208L241.81 41.5839H246.052L252.415 23.2017H247.615L245.159 31.0904C244.824 32.2439 244.229 34.4394 243.931 35.8162C243.708 34.5882 242.964 31.8346 242.74 31.0904L240.285 23.2017H235.67L233.14 31.0904C232.545 32.9137 232.21 34.0673 231.875 35.8534C231.54 34.1417 231.168 32.5416 230.759 31.0904L228.34 23.2017H223.614L229.568 41.5839Z" fill="white"/>
<path fill-rule="evenodd" clip-rule="evenodd" d="M264.563 38.8675C263.782 40.7653 261.289 42.0677 258.423 42.0677C254.516 42.0677 252.135 39.7978 252.135 36.3372C252.135 32.951 254.591 30.8299 258.944 30.495L264.452 30.0857V29.6764C264.452 27.1833 262.963 26.1786 260.656 26.1786C257.977 26.1786 256.488 27.2949 256.488 29.2299H252.619C252.619 25.2483 255.893 22.6435 260.879 22.6435C265.828 22.6435 268.88 25.3227 268.88 30.4206V41.5839H264.898L264.563 38.8675ZM256.749 36.1511C256.749 37.8256 257.865 38.6442 259.912 38.6442C262.703 38.6442 264.489 36.9697 264.489 34.1417V33.1742L260.656 33.4719C257.828 33.7324 256.749 34.6627 256.749 36.1511Z" fill="white"/>
<path d="M276.614 41.5839V13.8989H272.112V41.5839H276.614Z" fill="white"/>
<path fill-rule="evenodd" clip-rule="evenodd" d="M291.684 38.8675C290.902 40.7653 288.409 42.0677 285.544 42.0677C281.637 42.0677 279.255 39.7978 279.255 36.3372C279.255 32.951 281.711 30.8299 286.065 30.495L291.572 30.0857V29.6764C291.572 27.1833 290.084 26.1786 287.777 26.1786C285.097 26.1786 283.609 27.2949 283.609 29.2299H279.739C279.739 25.2483 283.014 22.6435 288 22.6435C292.949 22.6435 296 25.3227 296 30.4206V41.5839H292.019L291.684 38.8675ZM283.869 36.1511C283.869 37.8256 284.986 38.6442 287.032 38.6442C289.823 38.6442 291.609 36.9697 291.609 34.1417V33.1742L287.777 33.4719C284.948 33.7324 283.869 34.6627 283.869 36.1511Z" fill="white"/>
<path d="M70.8103 23.0017V16.9072H66.8558V20.0839C66.8558 20.9567 66.6064 21.6675 66.1077 22.2161C65.6339 22.7398 64.9356 23.0017 64.0129 23.0017H63.0777V27.4157H66.4069V35.9819C66.4069 37.7525 66.9306 39.1491 67.978 40.1715C69.0254 41.1691 69.9125 41.6678 71.708 41.6678C72.8552 41.6678 73.7904 41.5182 74.5136 41.2189V37.1042C74.1644 37.2039 73.6532 37.2538 72.9799 37.2538C72.2317 37.2538 71.6831 37.0917 71.334 36.7675C70.9848 36.4433 70.8103 35.8947 70.8103 35.1216V27.4157H74.5136V23.0017H70.8103Z" fill="white"/>
</svg>
