<svg width="80" height="81" viewBox="0 0 80 81" fill="none" xmlns="http://www.w3.org/2000/svg">
<rect y="0.442993" width="80" height="80" rx="40" fill="#D8FFCB"/>
<path fill-rule="evenodd" clip-rule="evenodd" d="M34.9182 37.5468C34.8453 37.4739 34.7725 37.4011 34.6996 37.3282C33.2094 33.6112 30.4408 31.7715 26.3936 31.8091C22.3376 32.2949 19.8786 34.5353 19.0165 38.5304C18.7477 43.2863 20.8788 46.3646 25.41 47.7654C27.1664 48.0916 28.8421 47.873 30.4373 47.1096C31.3788 46.5021 32.2714 45.8281 33.1149 45.0878C34.3171 43.667 35.5193 42.2463 36.7214 40.8255C38.8343 37.8383 40.9473 34.851 43.0602 31.8637C44.3041 30.527 45.7431 29.4706 47.3772 28.6943C47.5441 28.7023 47.6533 28.6294 47.705 28.4758C54.1288 26.27 59.4293 27.8364 63.6067 33.1752C65.4805 36.2467 66.0633 39.5619 65.3553 43.1206C64.5446 46.3742 62.7413 48.9425 59.9455 50.8255C55.3398 53.7396 50.6767 53.8125 45.9564 51.0441C45.1933 50.4543 44.4466 49.8532 43.716 49.2408C43.1706 49.6587 42.6788 50.1323 42.2406 50.6616C42.1329 50.2098 42.0965 49.7361 42.1313 49.2408C42.1912 47.347 42.2277 45.4526 42.2406 43.5577C44.4677 43.6031 46.69 43.7306 48.9072 43.9402C48.4518 44.3957 47.9965 44.851 47.5411 45.3064C47.4682 45.452 47.4682 45.5978 47.5411 45.7435C49.181 47.1994 51.1117 47.9279 53.3335 47.9293C56.7468 47.8658 59.1876 46.2994 60.6559 43.2299C62.1669 39.4563 61.4565 36.1594 58.5247 33.3391C56.1867 31.6805 53.6366 31.2797 50.8744 32.137C49.1889 32.789 47.7864 33.8272 46.6668 35.2517C45.1731 37.4375 43.6796 39.6233 42.1859 41.8091C40.756 43.6894 39.2988 45.5473 37.8143 47.3829C35.7802 49.6742 33.3576 51.4046 30.5466 52.5741C26.2 53.9402 22.2292 53.2481 18.634 50.4976C14.1824 46.2668 13.0349 41.2576 15.1914 35.4703C18.3304 29.0948 23.4124 26.5265 30.4373 27.7654C34.1165 28.9483 36.8488 31.2617 38.634 34.7053C37.3963 35.6522 36.1577 36.5994 34.9182 37.5468Z" fill="#318216"/>
<path fill-rule="evenodd" clip-rule="evenodd" d="M47.7048 28.4758C47.6531 28.6295 47.5438 28.7024 47.377 28.6944C47.4286 28.5407 47.5379 28.4678 47.7048 28.4758Z" fill="#C7E1AA"/>
<path fill-rule="evenodd" clip-rule="evenodd" d="M34.6995 37.3282C34.7724 37.4011 34.8452 37.4739 34.9181 37.5468C34.9115 37.6062 34.8751 37.6426 34.8088 37.6561C34.712 37.566 34.6756 37.4567 34.6995 37.3282Z" fill="#CDE4B3"/>
<path fill-rule="evenodd" clip-rule="evenodd" d="M42.131 49.2407C42.0962 49.736 42.1326 50.2097 42.2403 50.6615C42.2337 50.7208 42.1973 50.7572 42.131 50.7708C41.9876 50.2442 41.9876 49.7342 42.131 49.2407Z" fill="#CAE2AF"/>
</svg>
