<svg width="80" height="81" viewBox="0 0 80 81" fill="none" xmlns="http://www.w3.org/2000/svg">
<rect y="0.886108" width="80" height="80" rx="40" fill="#E0E7FF"/>
<path d="M44.6837 37.7636H53.0985L47.8997 31.5188H44.6837V37.7636ZM48.5866 51.0336C49.1955 51.0336 49.7419 50.8307 50.2103 50.3623C50.6786 49.894 50.9284 49.3475 50.9284 48.6918C50.9284 48.083 50.6786 47.5366 50.2103 47.0682C49.7419 46.5999 49.1955 46.3501 48.5866 46.3501C47.9309 46.3501 47.3845 46.5999 46.9162 47.0682C46.4478 47.5366 46.2449 48.083 46.2449 48.6918C46.2449 49.3475 46.4478 49.894 46.9162 50.3623C47.3845 50.8307 47.9309 51.0336 48.5866 51.0336ZM30.6331 51.0336C31.32 51.0336 31.882 50.8307 32.3191 50.3623C32.7563 49.894 32.9748 49.3475 32.9748 48.6918C32.9748 48.083 32.7563 47.5366 32.3191 47.0682C31.882 46.5999 31.32 46.3501 30.6331 46.3501C29.9461 46.3501 29.3841 46.5999 28.947 47.0682C28.5098 47.5366 28.2913 48.083 28.2913 48.6918C28.2913 49.3475 28.5098 49.894 28.947 50.3623C29.3841 50.8307 29.9461 51.0336 30.6331 51.0336ZM49.3672 28.3965L57.1731 37.7636V48.6918H53.2702C53.2702 49.9876 52.7862 51.0804 51.8495 52.0172C50.9284 52.9383 49.8356 53.3754 48.5866 53.3754C47.2909 53.3754 46.198 52.9383 45.2769 52.0172C44.3402 51.0804 43.9031 49.9876 43.9031 48.6918H35.3166C35.3166 49.9876 34.8482 51.0804 33.9271 52.0172C32.9748 52.9383 31.8976 53.3754 30.6331 53.3754C29.3685 53.3754 28.2913 52.9383 27.339 52.0172C26.4179 51.0804 25.9495 49.9876 25.9495 48.6918H22.8271V42.4471H35.6132L25.9495 34.8129V39.3248H22.8271V29.9577H24.3883L41.5613 39.4184V28.3965H49.3672Z" fill="#003191"/>
</svg>
